<mxfile host="Electron" agent="Mozilla/5.0 (Windows NT 10.0; Win64; x64) AppleWebKit/537.36 (KHTML, like Gecko) draw.io/24.7.8 Chrome/128.0.6613.36 Electron/32.0.1 Safari/537.36" version="24.7.8">
  <diagram name="Страница — 1" id="isDyZBkUkBif_jN_mmZU">
    <mxGraphModel dx="1195" dy="797" grid="1" gridSize="10" guides="1" tooltips="1" connect="1" arrows="1" fold="1" page="1" pageScale="1" pageWidth="827" pageHeight="1169" math="0" shadow="0">
      <root>
        <mxCell id="0" />
        <mxCell id="1" parent="0" />
        <mxCell id="DxSVKQ_-vADC1yZE9kcd-1" value="" style="swimlane;startSize=0;rounded=1;sketch=1;curveFitting=1;jiggle=2;glass=1;shadow=1;" vertex="1" parent="1">
          <mxGeometry x="160" y="120" width="280" height="440" as="geometry" />
        </mxCell>
        <mxCell id="DxSVKQ_-vADC1yZE9kcd-2" value="&lt;h1 style=&quot;overflow: auto; padding: 9.144px 13.716px; text-wrap: wrap; word-break: break-all; margin-top: 0px !important; margin-bottom: 0px !important;&quot;&gt;&lt;b style=&quot;&quot;&gt;&lt;font style=&quot;font-size: 20px;&quot; face=&quot;Comic Sans MS&quot;&gt;TRIP PLAN &lt;/font&gt;&lt;/b&gt;&lt;/h1&gt;" style="text;html=1;align=center;verticalAlign=middle;whiteSpace=wrap;rounded=0;" vertex="1" parent="DxSVKQ_-vADC1yZE9kcd-1">
          <mxGeometry x="62.5" y="20" width="155" height="30" as="geometry" />
        </mxCell>
        <mxCell id="DxSVKQ_-vADC1yZE9kcd-3" value="&lt;b&gt;Войти через VK ID&lt;/b&gt;" style="rounded=1;whiteSpace=wrap;html=1;fillColor=#dae8fc;strokeColor=#6c8ebf;" vertex="1" parent="DxSVKQ_-vADC1yZE9kcd-1">
          <mxGeometry x="40" y="80" width="200" height="40" as="geometry" />
        </mxCell>
        <mxCell id="DxSVKQ_-vADC1yZE9kcd-4" value="&lt;b&gt;Войти через Яндекс ID&lt;/b&gt;" style="rounded=1;whiteSpace=wrap;html=1;fillColor=#fff2cc;strokeColor=#d6b656;" vertex="1" parent="DxSVKQ_-vADC1yZE9kcd-1">
          <mxGeometry x="40" y="130" width="200" height="40" as="geometry" />
        </mxCell>
        <mxCell id="DxSVKQ_-vADC1yZE9kcd-5" value="&lt;b&gt;Войти через Telegram&lt;/b&gt;" style="rounded=1;whiteSpace=wrap;html=1;fillColor=#0050ef;strokeColor=#001DBC;fontColor=#ffffff;" vertex="1" parent="DxSVKQ_-vADC1yZE9kcd-1">
          <mxGeometry x="40" y="180" width="200" height="40" as="geometry" />
        </mxCell>
        <mxCell id="DxSVKQ_-vADC1yZE9kcd-6" value="&lt;b&gt;или&lt;/b&gt;" style="text;html=1;align=center;verticalAlign=middle;whiteSpace=wrap;rounded=0;" vertex="1" parent="DxSVKQ_-vADC1yZE9kcd-1">
          <mxGeometry x="110" y="260" width="60" height="30" as="geometry" />
        </mxCell>
        <mxCell id="DxSVKQ_-vADC1yZE9kcd-8" value="Продолжить без авторизации" style="rounded=1;whiteSpace=wrap;html=1;fillColor=#f5f5f5;gradientColor=#b3b3b3;strokeColor=#666666;" vertex="1" parent="DxSVKQ_-vADC1yZE9kcd-1">
          <mxGeometry x="40" y="400" width="200" height="30" as="geometry" />
        </mxCell>
        <mxCell id="DxSVKQ_-vADC1yZE9kcd-10" value="&lt;b&gt;&lt;font style=&quot;font-size: 14px;&quot;&gt;Email:__________________&lt;/font&gt;&lt;/b&gt;" style="text;html=1;align=left;verticalAlign=middle;whiteSpace=wrap;rounded=0;" vertex="1" parent="DxSVKQ_-vADC1yZE9kcd-1">
          <mxGeometry x="40" y="280" width="190" height="30" as="geometry" />
        </mxCell>
        <mxCell id="DxSVKQ_-vADC1yZE9kcd-11" value="&lt;b&gt;&lt;font style=&quot;font-size: 14px;&quot;&gt;Пароль:________________&lt;/font&gt;&lt;/b&gt;" style="text;html=1;align=left;verticalAlign=middle;whiteSpace=wrap;rounded=0;" vertex="1" parent="DxSVKQ_-vADC1yZE9kcd-1">
          <mxGeometry x="40" y="310" width="190" height="30" as="geometry" />
        </mxCell>
        <mxCell id="DxSVKQ_-vADC1yZE9kcd-13" value="" style="shape=image;verticalLabelPosition=bottom;labelBackgroundColor=default;verticalAlign=top;aspect=fixed;imageAspect=0;image=data:image/png,iVBORw0KGgoAAAANSUhEUgAAANQAAADXCAYAAABiSn+2AAAAAXNSR0IArs4c6QAAAARnQU1BAACxjwv8YQUAAAAJcEhZcwAADsMAAA7DAcdvqGQAACadSURBVHhe7Z2JV1PJtsbff/r63h7tQduh256159FZEAUcQHFWBBQVRBEnFARkSAhkgCSEQEYyQMb91ld0unmVAOfAGSqhaq3fWnfd7tbknPpSVXvv+vb/pFIpkkgk2vA//P8hkUg2jhSURKIhUlASiYZIQUkkGiIFJZFoiBSURKIhUlASiYZIQUkkGiIFJZFoiBSURKIhUlASiYZIQUkkGiIFJZFoiBSURKIhUlASiYZIQUkkGiIFJZFoiBSURKIhUlASiYZIQUkkGiIFJZFoiBSURKIhUlASiYZIQUkkGiIFJZFoiBSURKIhUlASiYZIQUkkGiIFJZFoiBSURKIhUlASiYZIQUkkGiIFJZFoiBSURKIhUlASiYaYIqjk4hIFo0mKJ5eK/plEUs6YIqjZYIKaHnqp7u40XXzkpdu9s9QzHKAhe5icvhiFosmi/0YiKQdMERRWp5rbU/S/B4bpP4dG6L2jo/RR9RjtPGmhz+vH6ZtzNvrruoPO3HdT64tZej4aoAnPAoUWpNAkYmOKoEBH/xwTEkSllLcODtPH1WP0Y9Mk1d9z051XszTmilB4IUlLS6llSvxdEolRmCYomydKX521FYlmI/zn4Ah9csJC+89P0PEWF9tG3u/30+BkmMbdUbaN9M7HKRhJ0kJ8kQmP/zx6gL8nnkxRJJ6m4EKa5qJp8oXT5JzL0LgvS8PuLPVP5eiFPUdPJ3LUY8vRY1uOuqw5emhd/t/4/55N5qjXkaOBqSyNeLJkm83QdCBDs5E0zUfTFIqlKZpIU2JR/qCYjWmCiiWWqKrVxVYdXiBa8v6xUfqsfpx+vjhJ1a0uOv/AQy3PfdQ1MEe9liCNOCPk9C3QfDjBgiX851TD4lKKwrE0eUMZmpzN0Ig7Sy8dWeoez9G90Ty1DOXpWj/RlT5tuP6aqG0oTx1jeXpiy1GfM0tj3gw5/Bkm3GhiWdT855Toh2mCAo+G5undI+q2fVoAEWO7ub3GQnvrx2lf4wT9etlOR2456WyHm273+unZaIAsUxEWQFlrUsaSKXIHM/RmOstWmc6xPN1+k6cbr4sFYARX+4maB/LUPpJnKx1WP8tMlvyR9JrfQ6INpgoKwYntJyxFE95MECR598gIfXBslD6sGqNPTozR7lor/XxpkkUlWxAkGQvSq4k4PZ3IMvHcHCBNVx4tufr3StY8QExk/a4sW72wmvLvQ7J5TBUUqGufLprU5cLbh0fp45oJ2tswTT9c9dGBthDVPEjQuSdpanyWofPPs9T0IkcXX+bo8qt80WQ3kzvDeRqczlFgIc3OeXL10gbTBWWZitJ/D40UTdZyBqvcB1VW+rTWTl80TNP3l330Z0uQjt2L0onOONU+TNKZx0tMdBd7c0WT3UiweuGMN+7LsG1hcrH4HUmUY7qgFhdTtO/8RNGkrERYzu2Yha1qO+sctPfcFH3T5KEfrs7S780BOnwnQicfJOjskxQ1GSw0bFnvjuTppSPHopA4G/LvSrI+pgsKtL/0F02+rcRbB0fov4dH6d2jFtpWNU4f19hox6lJ+uyMi7676KVfm+fpSHuETj1M0oUX2SIxaM2twTw9Gs+R3Z+RZy2VCCEo5IgQAOAnmqQ07xwdo131Dvr+yvK5DauaXita+3Ce5bz4dyYpjRCCQqUDErL8xFmNj6rGWMUEQt//0TmPVU5ghdt+apKd237Aua01SFUdMap7tEhnelLU8DTNAiUsSFJCPKuBUDySzO5AhgUw+Pcn+RchBLW4uESdr+fonSPKghMoO3puCdPd/nm68thHp+976FjLFP12xUHfNEzQzlNWeuewsj+r0sF2EkLDuW3PaSd9fd5NP1zx0W/N82x1O3o3SjUP4nT68RIT21pCQ36r155jeTe5FSyNEIIC1mnlpUi/X7VTYeSJKJXJUTSRodnQEjlnkzQ2Hae+iSg9GAjSpe4ZOnF7mn657GAVE29Lof0Dzm0Iknx4wkY7aidpzxkXfdm4HJVEkATntpNdy2mAlWH/tjfIZ+VYORX/Hrc6wggqGlukE23LFejrgTC7P7z0j6hWG7lcnoktmcpSLJmlSDzDat9GphPU3h+muo5Z+uWqm3bXTbKcEv/3bFVYkOTQKL19ZIzePTrGRLetepx21jvomwse+v1WgGo6Y3Szb4kcflmBsRJhBAXu9ftZhQL/gktx+bGP18+mxlImT05/irpHF+ji4wAdaZ2hfRectPPUOH1cbaEPjmNyjdJ/D4+wCcd/nq0Kfoh21dno0E0nNXV52NZ92BkhfzjBKmEisUVWkJxILm2JbaJQgnL5Yuw+FP/SSrGjxkKJpSyvC81HNpenuWiGhqeS1PUmSpd75qn23gwdaZ6iXy476euGSdpVa6MPq630zpFReqvEZ92K4Idnd52Vfrtsp5O3p+jKYy91vJ6jl9YQvbGHyeaO0rQ/RnOhxPINgBLzoRwRSlAITlS1Ktv2ocD15XiYn/+GDQgtGMuQY3aJhpwJemZZoAdDIWrtnafGLh8dbHbTNw0O2nHKxrZNUmjL4AyL+sgvz9jop4uTdPimk+rvTtO1nhm63+enF5Ygjboi5PbHKBpfLJojoiOUoACuVPAvYTWq26Yph6iEQAOfZzGVY2LzBlPk8i/R5EySBh0xau8P0ZnOWfrjupu+OOugbVXWou+0VcG5GNt93ADYU2dlASrcb/vrmoNO33PTrWc+ejIcYCsbVjR+3oiCcILCnSRch+cfeCnwK+cJLPJzWtgB7efzy6Jj5PIUimXo5UScrjwN0uGWGfqqwcnqAP9X5tf+Aas7diQAeUeIb9cpK/1x1UENnR7q6PfTiCtCgYj5FgnCCQpc6vYUPdRSbDs+Rl1DQTZRK2ng+8QWc2T1LtKj4QW68iRA1e0zy2e2cxO0p85G22us9MFxy/K5TQZJGBAcKm6+PWdjhQLXe2bo8fA8+QLxojmmF0IKCodVJX4TeICn2t0UX9Q/OCHCwOq2kMySw79E/ZNxFiS51Rugi92zVHfPQwduTNH+Cw7aXTdB7x+3SKEdGGa5x4HJsGGhfSEFheDEn9ccRQ+nFHvP2NgZZauPVCZPgYUMTc2nyOJOUv9kjJ5ZInT7VYDOdProzxtu+rrRSZ/U2LZMzu3D42PMog52C/wc0wshBYUQ6oOBuaIHVApciegcDFEux08xOTAyuTwtpnMUW0RiO0vBhQz5QikanU5QW1+Ijt+eof1NU7T9pI0lc/nnW65g94JtH/Jg/PzSEyEFBezeBRbt4R9UKX67Ok2JJamozY5MNk/uQJp6LDG6/CRIR5HcbnLRjhorO5u8d2yUndkQFBB9O7mn1kr+UKJoXumNsIKC5VfBDHM93js2Rp5Aip8fcmg0EJGED0WfPU73Xkfo0t/J7cPNU/TzZcc/ye2PBEluI+k/6owUzSkjEFZQKFOBtx5swPgHVgpEwuQwdiC5HYpnyen/N7ndMRCi60/9VHt3hv64Nk1fN9iZ0PS2iyuAEjGUP/HzySiEFRRAEk9pBfqnp2yUQxhMDtMHhIaw/0wwRS298yzMb4SgcJ4+1+GmyIKx56aVCC0oJHmPtSg3w+y3J/h3K4cJA4J6bonQV+cmls9bJd6VHqCUCSkXfh4ZidCCAl2Dc4rNMA/d8rBcjRzGj6U0VqQl6hgIKN5VaAkaTfSNh4rmj9EILyj3fIJVBfAPsBSfnrSyw7Mcxg0kmoedMbrY7WNCUrqb0BIU3CLfZFTydi2EFhQCEzDH33dJWSkSVrI7/SH+ncuhw4gmsvTwTYiOtkyxujr+XRgJzk2xhHnnppUILaip+Qy1DuWZfRb/EEuBvfqxlmmWyJRDn4Fbzy0v5uiLMzZWHW7GirSS367YhSiKLSCsoGAR3DH6r48BTEb4h1mKz09P0Ji7fCrQy2GkM3nyhZboUrePlfPwz9ws4DmP/mD83DETIQWVXEoxB9OVjju/N88XPdBSILF477UsRdrsQAoCfadwPjrX6WW2bfyzNhMIu/2Vn12t5+ePmQgpKOtMlq5z3Sxgc/XuMWWdOo62uFndmhwbGzOhJbr/OsCu+eOKDP98zQZ3onDLF54V/NwxG+EEhWZl8H/jPeFgQQwDR/7hluKTmnFyzcltn5qB8iKXP0mND2aYt6FSsxwz+LbBZugdJzUIJahYMs0alvFiApdfER1sCysuymzvk9E+JQNCcviSdKx1iolIdCdefEb3nLnJ27UQRlAIkaPnLNqr8GIqgGgfjPT5h1yK7y64ZJJ3lYGqcpyPXk9G6eBNlynthDZiOPr+0VHqHpovmjsiIYygZsIZ1mGPF9FKsO376rxbUSkL7vZMz8sK9JUjm80zZ932V/P08yU7q33jn5veIFe4/8Ik/XjJSW8dKv7nqwGb7sZOj+H3m9QihKASyRTrcg5Tel5EPH/eCjJHU/6Bl+LkvVl+Tm3JARemN84Ynb7vpW8bJhR7yGsJoq8Hbrjo0ZsQvbQt0E+XXIp+GAFyXbDfNrtOTwlCCMoTzChu8oxoH7y4+YdeCtyTSm7hi4fY2r2yRenPa0765ITFlPMRrt9Ut7lp3JNg/vPxxRxd7ParuoYP514U24pQWrQepgsKD6ljTHlvI3SHUBrtAzAy2UoDld6JxSw9HgnT5/XKfni0hnnsHR+l0/c85An860GPM23v+ALzSuf/m9VAEOqv1iC9dGTLol2p6YJCzokXzXocuRstevCrcajZzX6pK33AlnpyJsHKgvaeHje8JAjbN/Tt+uminW4+87OmDPyYmkvR7vrJov92NSAmNCdA54/bb/JsJ8PPH9EwVVDhWJp1I+cFsx7orK70V+6zehvZZ9fv1FGuA9sobOuwGsAyy2ghAWwn4eLbMxKi+WiqZHQ1ksjSr1eVWRoUQEtUNPbGO7/aR9TnzFFC8FXKVEENTWdZs2ReMEpAO0z+BZTivaNj1N4X5N9v2Y+FRIbu9wfo96tO5qHAf2+9wYqExnYXH/nI4o6zotkSOmIjnc0zDwqlOUTw8ckJ1up05TtH7190qufnkUiYJihsCe6vKH5VC5qAKX1BVW1udm+nEkY4nqYbT/3soP62CWFvgL+7tXeO5bJwZltv3OkLsR82/s9ZjXeOjLF2piubvBV4bs8WzSWRMEVQCERYvGsncdcDwYndp51FL6MUe+omyOopTzNMbJ/gjOuYTdKFhzPsnMJ/P73BNrJwPnowEGBN7JQMfPaRqSTtPaPspsDy3zVC3zZ56eIqTbixowkuFM8pUTBFUPiVfWQt/cDU8GdLUNGZAQlMuPEo+TUVZeCzzoZT9MwSppo704obKGgJntve0zZmd/3CGmFmmWoGnGwPNk8rzjeBT+vsbPfBv+uVvLDnhA2hmyIo55zyvNNaoLv5tiplDdr+vD7NciDlMLyBJRat+/WKw5QiVYS9v22cYNE6qzvO/CI2Mhoe+lkfX/7PXw28y9pHyaL3zHNzAE3wxDxLGS4o1Ow9mdj86gTQtRylSPyLKQX28LAgFnVg8URZUO1dD+2uHWftR/nvYATfNU7Q4+HlaF1a4dau1OgcirLqCP7PXw0keo+2R4vecSlQUfPaJeZZynBBReOportOm+Gv1pDiX8ErT8Uyw8QZA7dhbd4EHW520TsbKBjdLNgyo74Oq+HoVIz/iBsaSFMgsMD/XauBz/Dj1Vm6+FL5Dy1uc0fi4q1ShgtqYEp9Inctah8m6ROF1+P31E+yEK7Zo3ClvGckTH9dN6faGyKCL0Rtu5tGp+OaJb8R1v7pkrJgEUAQ4rOzLjr7JFX0btfi1iCR3S9eotdQQcUSKWoZLH44mwHRoK8a3YqCE2DQaV60D5PWMh2n60/89GOTfUNXGDYL+m4hd4Uzmt2XLJmE3ehAauLcg1lVW71t1eNU3Rkveq/rgUQvbBLiyeJ5ZiaGCgq/KPyD0YIDKrZ9h1u8/DzQfaDau88WpWO3pliXezPyR1iRcKUdVRX+SErziCf+vO6RCH1YpSLJfHCYDraFSuablHB3JM/ymfw8MxNDBdVjU75HVgPKU947ruxFbj9hoflIhp8Pugz00O0dj9IPTXY2odWEj7UC1d4n77jJPb/I8kdarkgrx2wkTdtrlEVcC/xwxbdhMQEEJ5zzYm37DBNUcCHNChz5h6IVX19QZoaJ7Qi6ses1MGnnIinqHAiy2jr+79cbiBbbut11VuYPsbLaW6+BxgDojsh/lrVAUl5NEGI1eu1ZFjnm55tZGCYomy9DNweKH4hW1HTGFZ2j8O/AFSmZ2nhIuNRA0nPYFaMrj2dNqfYGKFL964aT2vvmS1Z76zHQ6O7UPWV1lQXgsXiya/18kxJghBoT6BxliKDwC/LKqexG7ka59DLPCir5l1cKlMJYPZt3RcLuCfVsj4ZDdLx1mhkvmrGt23nSSmc7vOychp2AXts6fuDcBA/E948pD5HjlsCBthB7X/w73CieoDjnKEMEhUnXpUGp0Xr8dlOhGebhUbr/OrSpiYcVqe3lPH3XOGmad92uWivdejFH0/OLlFxSVxakxRh2JeizemU/YgAh8u8uealplTq9jYIfa37OmYUhgsLFMCzN/IPQGtSAQSz8iyzF0RaPajNM/CKjguBqj7rQsFZg9UPOCtcmYLRiZl/h+WiGfrmi7n4Ttnow2uHf22a5NZQvmnNmobugUMQ47svout0r0KTCDBNdzx2+9bd9iC7jIuSIq2BJrCyaqCU4j6FVz8EbLuoeDm24tk6rgXzahW6/qnMi6vROP14semdaMSfIPSndBYUbln1O7X+VSoEQLPwHlNhjYftxtz+06qU4rEYoUkW07uitKdYFnf8z9Aar0dfnJuh81wzz0FNb7a3X6BgMq1qh3ztqoSN3IkXvS0ssXjHC57oLaiGRpi6L/tu9AjDD/EihK9L+Jhdbgfjh8i+yBmL7z08qbpqtJRDS9xcmmb84CmZRqiTKeO1I0IfVyvtB4bv8dM2/6v0mrUDBNT/3zEB3QSEgUcqrXC8KZpj8iy0FVrKZvzseQlgTfxepopO4GfV1YF/jJPVPRpnpitbVDJsdvlCa9l9wFH3mtfj87BQ1PF37fpMWwJskvmj+tk93QcH8n//yeoOLh28r3JKcvDtLb5wLdOimyxQDSAgXnhCHml2sSFUwDf0zEAA50+FTtJ0uAP9E3hdCL1qGxPCb0F1QY15jzk8rqe9eVLztwz0cNZNEK1DNsO/8JDU9mmEro1bV3nqMTC5PHQNh+kBheReAFTbyTfy70YvmASLHnPnnKN0F9XxS371zKS69ytOXjcqifUYDIcGgv3MwSFNzi5vKhRk1kATfXafsBwogvP/jtVlNk7frAX8SNJvg55/R6C4oVATzX94IjrRHil60mRSKVMem4hSOZ4Q7H602WJ1eg7pzE1IXSGHw70Rv4I9vtteE7oK6poF3xEa49DKnOMmrF8jTINyOsiAUzJbbgOYPNCsrOi7wUY2N6rqXit6HEeA2g9n3o3QVFK4o81/aSPZfVle0qQUQEUqR4M2AQllvUP9qbz0GQvUtL4Ps2gn/HVcDLVsP3g5v6krGZnhozbEkPD8PjURXQXmD5gqq/vGSoeHv7TUWOt46RQ+HghQwqNpbj4GVadARV1Wnh8AO3Hy1rtNTA4xTza6Y0FVQuLLBf2kjgRnmrnp1+/+NsOuUlUXrxqZjy5bE5XE8WnXAouuXyy7FzrwA95sa/vYhNwvct/OGKlhQ8C7nv7TRICfFv3ytQJHqnb55thqJVM2w2VFz10f/USEmXMk4Z0Dydj1ahoimAuaGznUVFEw0+C9tNMhJfXBceanMWqBhGc5HMIHsGgoyr4hKGtjqPRqJqlqZ0E3y+P2FouduBrjAanYuSldB6eUhoQY1ZphrsadunE7cnmaWxGZXe+s1cL8JXR/5774aMMb5+bpfk6vsWgDf84nZChbUAwOLYlfj8qu/S5E2EEJHQAMXCGFJDBNImPZX6nD5l2h/k/LzJlaxvQ1TQmz1VmKdqWBBmZXU5UEFOi638ZNiNbC1g1MR7h7BvlnksiAtRjSRZf2b1EREUacHk1H+WZvNqDdjanJXV0FtpDuhHqAE5gsVpUhr3ZOqtAGrs66hsOoVXKkPudGMeLKVK6i2N8Vf2CzUeKAfafVuGUGNexfpExV+esg3/XBltuj5igLq+cy0FdNVUK1DxV/YLM4+SdMHVcqifdtrrDQXNcYM08wxG8nQtyr99FB0rPdlwc2AVI0UlEF8rTDah+vd916H+flXUQO+hEdalD2PAp/W2llPLv65isSbSl6hbg8Xf2EzOdEZL5okpVg2w5wWolOHHgPf6vrTeXW+EMcsdLg9wqKm/HMViWFPBQuqXZCgRAGUIn1Yrexez+entTHDFG2gLOrVRIw+PaXu3IQ6Pdwz45+paIx6KzgocV+QsPlKflVohvnu0THmilom15YUD28wRb9edhV937X47IyTGp+bW6enlLFKDpt3WcUT1OnHS/Suwu56x9s8FElUTjIXPw7IN6mp0/u4xsaeGf8cRQQ9o+AByc9DI9FVUE816qWrJbhesPecMsfTHSdt5PRXzrbvxvOQYvMagFW6uiNW9AxFBdfgJ03uaqiroPpc4gkKh2o0aOMnz2rcHwiX/XUMjDeuJL11QPnKhMDMb83zZXFuKgCjFrP7RekqKIQw+S8tAmrMMH+46Cob/4fVhjeQom8aJou+22qgTg/5JrPvN6kFVmLTlXx9A8sv/6VFQE0FOrZIaJdSrgOGMDXtXlV1ep+cnKBTXcb46WkJSt1mKvmCoS8sViXyStSYYZ55MMfP07IYyKPdfqWufxNWJ9TpiZ5vKkXHmPk9d3UV1EIyVfSlRQEZf6Xbvm1V1rKsOJ+cwXdUVm5V4PfmedNMVjbLo/EcMwbi56GR6CoooGcb0M2AJK/SaB/oGVvg56vQA506dterOTcNs+fBP6dyAg0D0O2Fn4NGorugOgW4ZLgah+9EFPc4OnzLXTbBCdxvOnBT2RmxAOr0yiXfVAr0H+sToJOh7oJCu0b+y4sCghOoUeMnVyk+q7eRa058s8qldJ5uPJunt1U0PkAV/tG7ODeJ++O3Hjdeo0piC1gx23xihs4L7Ls0UzTBSvHe0TG60x/i569QA/my3vEF2nFSeZ0eTP1/EsgXYqM0DxJNmZyDAroLalbgSB8425NS3Lm9+rab4ib2tV1voE7vm0blvhAAfnqwreafS7mBHs6wc+Pnn9HoLihY4xrRsHoz7KxTNgnhpGr1JPl5LMSAE9Opu8pW2wLwhTCiGZoR3BvJU9LkgATQXVCxRIq6x8X+BfxDoRkmfBc6B0OUFWyRwlav9WVQVfL2/eNWqiqjOr31QOcNfu6Zge6Cwq/GwJTY56g6FWaYB2+6KZYUqwL9mWVBVfIWPwzlVqe3HmYXxRbQXVDA7s8wE0L+IYjC+ecZ+kqhKxK6+M2GxYn2OWaX6Muz6vJNKLvCd+afQzkTNjmhW8AQQaEESRRLsdWAK5LS1qDNL4L8vDZlRJNZqmrzqLJORp0e7Kn571/OtI/ki+acWRgiqGg8Lfw56lSXcjPMvWftpid5l/s3BdidJf7zrQZ8yI8I6qe3GYYEaAVawBBB4Urya1dW6G1f04scu7KgJISOG6+jbnOjff32OG1XkW/CZ8b1/3JO3pYCFRIidH8vYIiggHMuw5Jv/AMRib9UeKAfa5vh57hhIxDL0t7Tys9N4JsLnrJP3pYCdt8Jk9uArsQwQS0kxD9Hwfge4WR+Mpbi42oLq5kzemCr+X2TOpOVnbV2OvtE3Mr/zYAIspm2YTyGCQogV8A/ENHAto+fkKVgZpgDxpphpjJ5auqeU5VvQjrg2L0oq67nv2u5g/o9s2/o8hgqKE9Q/FAtTEn4SVmKZTNMNytGNWJgZXoxvqDKTw91er9UQJ3eaqBdUnBBnPMTMFRQSPKKZn7Jg04dSi8efnFmgmxeY1yR3IEU7b/gUHzdBGC1rbR8UwEEI15PZYUoN1qJoYICaIjFPxzR+PnGXNHkLAW2ffdf61+BjtvCB5s9qvz08KPQWGYmK2pAfaho2z1guKBwo/KW4NE+dOrAdomfpKVAYlVPM0yku64/V257Bt49aqG6R+I1Q9OSLkuOYgJF9woYLijkpPqcYtf2qTHD3FlrI7tPn20fil5f2mKK+1qBd46M0R+3AhVVp8eDfCY6FfJzSwQMFxTwhjLUMijuC0fy86/WoKItFsp+7g+EdDHDxPnsCxV1eiid+qbJU9FbPYDtntlmLKthiqAWEil6Nil25EmNGeaPl6c0d0Waj2ZY/yal9YVgx6lJqi9jXwiloKkaP6dEwRRBgcnZjLCOSECNGSYmPQSg1YCfXktvQNVWD6tpdWe86HtUGpgzcQHPTgVMExSW7IcCdudYCTPDVDipz3VpZ4Y55Ewovp8FIOjfmwNFn7/SQHcNkQphS2GaoIBtNss6JvAPThTUmGGi8TPabG52eIIp+kxFnR7OcKjTq7Si11LgmoZoiVweUwUVT6apY0zcsxSSvF80KCtFAs+sMV4fqgbC739cUxZdLACTlTM9lX9uQmQPHd6TAtXtlcJUQYHpgNgmIYfuhBVf4DvY7OY1onjAp+L8w1lVdXrbqsep6v5CWfqQq+X+aJ7mBLqmsRqmCwrAQpd/gKLQ9CLLLubxk7kUu+vGyb2BTh0IuT8ejdKH1crPTQhY/HJjbkuICccCtEbi542ICCEodEwQ2Wps3yVv0YQuBcww2/vUlyLBF2LfBWVWZgW+aJxmYuc/ayWCrhqi5p14hBAUChyRWxD1Ri9ckZTkg1C4WtXmptii8uDEYipHx1vhC1H8563Gp6cq934TD4pgcTmVnzOiIoSgAKI3KMfnH6gIYFv1qUIzzM9PqzPDbHw4pyrfhAuQSDrzn7FSwR06kS4QrocwggJI9qJPKv9QReCPlkDR5C4FggqP3igrReoZiyla+Qrg30V/4K0QIgdtb/LMKJWfJyIjlKDwSyRi53hwunuJ3lfYqeNQs5sW1jDDhNZwbtpTryzHBVAJ8W2Tl1Vw8J+tEsFtXJhXLpWYJyIjlKAAtn4iek9gIiu9Hv9RtZWm55d4Hf0zEISB6JQU3xbYWe+g+seV5ae3GjhL99pzrOaTnx+iI5ygAK7Ki7b1wzYLpUhK70nd6i1thokgxOWeOVV+eriSgav5/GeqVJBzEskaTA1CCgp3poY9WVa7xT9sM0Fn9I9rlG3Tvjjr4LXERt9knLYdV7Z1ZBwcpoNt4S1zbkLOyYGtXhkFIlYipKBANJEWLuF7sTdHX6ooRZqY+f/bvnAiSx9WKzdZgenmd5dmij5HpYIf0H6XGF00NoqwggJo1obln3/wZqKmAv347X/NMMPxLH1/UbmfHvJSu+udFdO/aT2Qb+qZKK8QeSmEFhQiPEjqieRBcaYnRduqlK0yn9RYKRjLUGIpR41dflUhcjRDw7lpK5QWgS6r+JXkShBaUAC/WBOz4rTDwQT/qlHZxcO3D4/QvYEIPRqO0Mcq6vTePjK67AvxUqzVWS9wLQOBqHI9N61EeEEBPOhRrzhBiqr7Cs0wDwzTrtoJ1kqU/2dr8eX5abr0Sqzzo140D+aXgxAl3ns5UhaCArAfe+XMCbFSIeL2QZXyFUcNaKlzfosUvSKiN+LJVoyYQNkICqDi+Lk9R9cFENXP1/1FYtgsuN+0Ver04A2BKxnlHoTgKStBgVAsTU8FcEw6/XiJJVx5UWwUJHoPtG2NOr2CmES/fbsRyk5QAB0RH1nNFRVyUp+dVR4GXwvcCP7u4gxd2AJbPdToDU5nhXYu2gxlKSiAQAUSv2YFKhDtQ+W3ko6H67Gjgvs3rQTn336XeAb/WlK2ggKopmBnKpOck2ofJlVVPpTivWMWqu6s/Do9bPOwMi1WsJhAWQsKhGNp5pVuhqjQKkapGWYpUGj7Z2uw6M+tNHCvyTJTGXmm9Sh7QQFcQhvzGi8qdAVEAlZpKdJKsFX84aqv4pO3t9/kye7PVFw0bzUqQlAAv36ueVz7MHaC1j5S7oG+ks/PuqjhWWXX6aECwhdOb4mVqUDFCAogQegNpqljNM+KLfkXrAcIcyttfVMAAqypYB9y5Am7rDmKxMq/Nk8tFSWoAoGFNOvuYVRVxcHbys0wkbtCxXql5ptgB4fO7Khs4d/LVqAiBQWQqxqbybIDMf/Steb8swyL1vHiKcW+Cs03IX2BnYFjLrNlxQQqVlAAe3fs4dHlQ+981XdN65thIt9UqSYrqF7B9YutdF4qRUULqgB6sfa59M1X1XcvFgloJVjBzlXgZcFbg8tRPP6Zb1W2hKAKeILLZpoof+EnhhbsOGUvEhJAnR6aDlTSZcHmQaJnEzmaL1MzFb3YUoICqK7AlQFcrdc6aPH7rWIzTLjCfn/FVzHnJjwzbKFhSlqp9XibYcsJCiDJOBdNs2iUlm1Jse17/9j/vye167SzYur07o7kyTqTYRX//DOVLLMlBVUAwgrH08w/W4vzFTPDXOGKhDY4lXC/qVAhjjKvrR50WI8tLagCLBoYStNjW44Zwmw0Iogz0l8tQWbGAo/zQ7fDRf9OuYCtXctgnl7Yc2XTSkYEpKBWgGsFMAvptWepfXhjZ6yTXQnafnKSvr/sY7V+/D8XHXxn9GN67coy91a5IqlDCqoE2AoifzXqyVL3uLqKCwQfsDI1PMsU/TORQfi7x5ZjZ6RAVAppo0hBrQGEhYoL1AfinKXUH7CcKshRDY5mdzAVhTl/JRmmmIEUlApQUoOK9m6b/pUXeoHPfWMgz247Iy/Hf0fJ5pCC2iAIHY/7sqzk5t5onlqG8ppECrUGaQHUM94fy9NLR4458ZZjm5hyQQpqk+CsgXDyVCDDzDgxaWEgg6CGljkuJeDKCs5C90aWz0O4yTw+kyVvKFN2nQDLFSkojUGkEAJDhMwdyDAbaSSQcZ2ky5JnzeS0WMnQPwsX+CDeF/YsvZnOspo6bOPmIml29tsqt2RFQgpKZ3DIh/8czl8o1VlILE92VGbPhDJsCzbuy9CIJ8N6YiGBOji1zJA7y8qk8M8gTKyCs5HlSgX8OVh18Gfiz5biEQMpKIlEQ6SgJBINkYKSSDRECkoi0RApKIlEQ6SgJBINkYKSSDRECkoi0RApKIlEQ6SgJBINkYKSSDRECkoi0RApKIlEQ6SgJBINkYKSSDRECkoi0RApKIlEQ/4Pvt102w1dlfwAAAAASUVORK5CYII=;" vertex="1" parent="DxSVKQ_-vADC1yZE9kcd-1">
          <mxGeometry x="210" y="13.700000000000017" width="42" height="42.59" as="geometry" />
        </mxCell>
        <mxCell id="DxSVKQ_-vADC1yZE9kcd-122" value="Войти" style="rounded=1;whiteSpace=wrap;html=1;fillColor=#d5e8d4;strokeColor=#82b366;" vertex="1" parent="DxSVKQ_-vADC1yZE9kcd-1">
          <mxGeometry x="85" y="350" width="100" height="30" as="geometry" />
        </mxCell>
        <mxCell id="DxSVKQ_-vADC1yZE9kcd-123" value="Регистрация аккаунта" style="rounded=1;whiteSpace=wrap;html=1;fillColor=#cdeb8b;strokeColor=#36393d;" vertex="1" parent="DxSVKQ_-vADC1yZE9kcd-1">
          <mxGeometry x="40" y="230" width="200" height="30" as="geometry" />
        </mxCell>
        <mxCell id="DxSVKQ_-vADC1yZE9kcd-14" value="а" style="swimlane;startSize=0;rounded=1;sketch=1;curveFitting=1;jiggle=2;glass=1;shadow=1;" vertex="1" parent="1">
          <mxGeometry x="500" y="120" width="280" height="440" as="geometry" />
        </mxCell>
        <mxCell id="DxSVKQ_-vADC1yZE9kcd-34" value="&lt;h1 style=&quot;overflow: auto; padding: 9.144px 13.716px; text-wrap: wrap; word-break: break-all; margin-top: 0px !important; margin-bottom: 0px !important;&quot;&gt;&lt;b style=&quot;&quot;&gt;&lt;font style=&quot;font-size: 20px;&quot; face=&quot;Comic Sans MS&quot;&gt;Мои путешествия&lt;/font&gt;&lt;/b&gt;&lt;/h1&gt;" style="text;html=1;align=center;verticalAlign=middle;whiteSpace=wrap;rounded=0;" vertex="1" parent="DxSVKQ_-vADC1yZE9kcd-14">
          <mxGeometry x="15" y="10" width="205" height="30" as="geometry" />
        </mxCell>
        <mxCell id="DxSVKQ_-vADC1yZE9kcd-35" value="&lt;b&gt;&lt;font style=&quot;font-size: 14px;&quot;&gt;Поиск&amp;nbsp;&lt;/font&gt;&lt;/b&gt;&lt;span style=&quot;color: rgb(255, 255, 255); font-family: Menlo, &amp;quot;Roboto Mono&amp;quot;, &amp;quot;Courier New&amp;quot;, Courier, monospace, Inter, sans-serif; font-size: 12.573px; background-color: initial;&quot;&gt;🔍&lt;/span&gt;" style="text;html=1;align=left;verticalAlign=middle;whiteSpace=wrap;rounded=0;" vertex="1" parent="DxSVKQ_-vADC1yZE9kcd-14">
          <mxGeometry x="22.5" y="40" width="190" height="30" as="geometry" />
        </mxCell>
        <mxCell id="DxSVKQ_-vADC1yZE9kcd-36" value="&lt;pre style=&quot;overflow: auto; padding: 9.144px 13.716px; text-wrap: wrap; word-break: break-all; font-size: 14px; text-align: start; margin-top: 0px !important; margin-bottom: 0px !important;&quot;&gt;&lt;b style=&quot;&quot;&gt;&lt;font face=&quot;Georgia&quot;&gt;    Сочи, 1-7 июня&lt;/font&gt;&lt;/b&gt;&lt;/pre&gt;&lt;pre style=&quot;overflow: auto; padding: 9.144px 13.716px; text-wrap: wrap; word-break: break-all; font-size: 14px; text-align: start; margin-top: 0px !important; margin-bottom: 0px !important;&quot;&gt;&lt;b style=&quot;&quot;&gt;&lt;font face=&quot;Menlo, Roboto Mono, Courier New, Courier, monospace, Inter, sans-serif&quot;&gt;Прогресс: ████░░░░ 40%&lt;br&gt;Редактировать [✏️]    &lt;/font&gt;&lt;/b&gt;&lt;font face=&quot;Menlo, Roboto Mono, Courier New, Courier, monospace, Inter, sans-serif&quot;&gt;            &lt;/font&gt;&lt;/pre&gt;" style="rounded=1;whiteSpace=wrap;html=1;align=center;fillColor=#f5f5f5;strokeColor=#666666;fontColor=#333333;" vertex="1" parent="DxSVKQ_-vADC1yZE9kcd-14">
          <mxGeometry x="22.5" y="80" width="237.5" height="90" as="geometry" />
        </mxCell>
        <mxCell id="DxSVKQ_-vADC1yZE9kcd-39" value="&lt;pre style=&quot;overflow: auto; padding: 9.144px 13.716px; text-wrap: wrap; word-break: break-all; font-size: 14px; text-align: start; margin-top: 0px !important; margin-bottom: 0px !important;&quot;&gt;&lt;b style=&quot;&quot;&gt;&lt;font face=&quot;Georgia&quot;&gt;    Москва - Казань&lt;/font&gt;&lt;/b&gt;&lt;/pre&gt;&lt;pre style=&quot;overflow: auto; padding: 9.144px 13.716px; text-wrap: wrap; word-break: break-all; font-size: 14px; text-align: start; margin-top: 0px !important; margin-bottom: 0px !important;&quot;&gt;&lt;b style=&quot;&quot;&gt;&lt;font face=&quot;Menlo, Roboto Mono, Courier New, Courier, monospace, Inter, sans-serif&quot;&gt;Прогресс: ████░░░░ 60%&lt;br&gt;Редактировать [✏️]    &lt;/font&gt;&lt;/b&gt;&lt;font face=&quot;Menlo, Roboto Mono, Courier New, Courier, monospace, Inter, sans-serif&quot;&gt;            &lt;/font&gt;&lt;/pre&gt;" style="rounded=1;whiteSpace=wrap;html=1;fillColor=#f5f5f5;strokeColor=#666666;align=center;fontColor=#333333;" vertex="1" parent="DxSVKQ_-vADC1yZE9kcd-14">
          <mxGeometry x="22.5" y="190" width="237.5" height="90" as="geometry" />
        </mxCell>
        <mxCell id="DxSVKQ_-vADC1yZE9kcd-33" value="" style="shape=image;verticalLabelPosition=bottom;labelBackgroundColor=default;verticalAlign=top;aspect=fixed;imageAspect=0;image=data:image/png,iVBORw0KGgoAAAANSUhEUgAAANQAAADXCAYAAABiSn+2AAAAAXNSR0IArs4c6QAAAARnQU1BAACxjwv8YQUAAAAJcEhZcwAADsMAAA7DAcdvqGQAACadSURBVHhe7Z2JV1PJtsbff/r63h7tQduh256159FZEAUcQHFWBBQVRBEnFARkSAhkgCSEQEYyQMb91ld0unmVAOfAGSqhaq3fWnfd7tbknPpSVXvv+vb/pFIpkkgk2vA//P8hkUg2jhSURKIhUlASiYZIQUkkGiIFJZFoiBSURKIhUlASiYZIQUkkGiIFJZFoiBSURKIhUlASiYZIQUkkGiIFJZFoiBSURKIhUlASiYZIQUkkGiIFJZFoiBSURKIhUlASiYZIQUkkGiIFJZFoiBSURKIhUlASiYZIQUkkGiIFJZFoiBSURKIhUlASiYZIQUkkGiIFJZFoiBSURKIhUlASiYZIQUkkGiIFJZFoiBSURKIhUlASiYaYIqjk4hIFo0mKJ5eK/plEUs6YIqjZYIKaHnqp7u40XXzkpdu9s9QzHKAhe5icvhiFosmi/0YiKQdMERRWp5rbU/S/B4bpP4dG6L2jo/RR9RjtPGmhz+vH6ZtzNvrruoPO3HdT64tZej4aoAnPAoUWpNAkYmOKoEBH/xwTEkSllLcODtPH1WP0Y9Mk1d9z051XszTmilB4IUlLS6llSvxdEolRmCYomydKX521FYlmI/zn4Ah9csJC+89P0PEWF9tG3u/30+BkmMbdUbaN9M7HKRhJ0kJ8kQmP/zx6gL8nnkxRJJ6m4EKa5qJp8oXT5JzL0LgvS8PuLPVP5eiFPUdPJ3LUY8vRY1uOuqw5emhd/t/4/55N5qjXkaOBqSyNeLJkm83QdCBDs5E0zUfTFIqlKZpIU2JR/qCYjWmCiiWWqKrVxVYdXiBa8v6xUfqsfpx+vjhJ1a0uOv/AQy3PfdQ1MEe9liCNOCPk9C3QfDjBgiX851TD4lKKwrE0eUMZmpzN0Ig7Sy8dWeoez9G90Ty1DOXpWj/RlT5tuP6aqG0oTx1jeXpiy1GfM0tj3gw5/Bkm3GhiWdT855Toh2mCAo+G5undI+q2fVoAEWO7ub3GQnvrx2lf4wT9etlOR2456WyHm273+unZaIAsUxEWQFlrUsaSKXIHM/RmOstWmc6xPN1+k6cbr4sFYARX+4maB/LUPpJnKx1WP8tMlvyR9JrfQ6INpgoKwYntJyxFE95MECR598gIfXBslD6sGqNPTozR7lor/XxpkkUlWxAkGQvSq4k4PZ3IMvHcHCBNVx4tufr3StY8QExk/a4sW72wmvLvQ7J5TBUUqGufLprU5cLbh0fp45oJ2tswTT9c9dGBthDVPEjQuSdpanyWofPPs9T0IkcXX+bo8qt80WQ3kzvDeRqczlFgIc3OeXL10gbTBWWZitJ/D40UTdZyBqvcB1VW+rTWTl80TNP3l330Z0uQjt2L0onOONU+TNKZx0tMdBd7c0WT3UiweuGMN+7LsG1hcrH4HUmUY7qgFhdTtO/8RNGkrERYzu2Yha1qO+sctPfcFH3T5KEfrs7S780BOnwnQicfJOjskxQ1GSw0bFnvjuTppSPHopA4G/LvSrI+pgsKtL/0F02+rcRbB0fov4dH6d2jFtpWNU4f19hox6lJ+uyMi7676KVfm+fpSHuETj1M0oUX2SIxaM2twTw9Gs+R3Z+RZy2VCCEo5IgQAOAnmqQ07xwdo131Dvr+yvK5DauaXita+3Ce5bz4dyYpjRCCQqUDErL8xFmNj6rGWMUEQt//0TmPVU5ghdt+apKd237Aua01SFUdMap7tEhnelLU8DTNAiUsSFJCPKuBUDySzO5AhgUw+Pcn+RchBLW4uESdr+fonSPKghMoO3puCdPd/nm68thHp+976FjLFP12xUHfNEzQzlNWeuewsj+r0sF2EkLDuW3PaSd9fd5NP1zx0W/N82x1O3o3SjUP4nT68RIT21pCQ36r155jeTe5FSyNEIIC1mnlpUi/X7VTYeSJKJXJUTSRodnQEjlnkzQ2Hae+iSg9GAjSpe4ZOnF7mn657GAVE29Lof0Dzm0Iknx4wkY7aidpzxkXfdm4HJVEkATntpNdy2mAlWH/tjfIZ+VYORX/Hrc6wggqGlukE23LFejrgTC7P7z0j6hWG7lcnoktmcpSLJmlSDzDat9GphPU3h+muo5Z+uWqm3bXTbKcEv/3bFVYkOTQKL19ZIzePTrGRLetepx21jvomwse+v1WgGo6Y3Szb4kcflmBsRJhBAXu9ftZhQL/gktx+bGP18+mxlImT05/irpHF+ji4wAdaZ2hfRectPPUOH1cbaEPjmNyjdJ/D4+wCcd/nq0Kfoh21dno0E0nNXV52NZ92BkhfzjBKmEisUVWkJxILm2JbaJQgnL5Yuw+FP/SSrGjxkKJpSyvC81HNpenuWiGhqeS1PUmSpd75qn23gwdaZ6iXy476euGSdpVa6MPq630zpFReqvEZ92K4Idnd52Vfrtsp5O3p+jKYy91vJ6jl9YQvbGHyeaO0rQ/RnOhxPINgBLzoRwRSlAITlS1Ktv2ocD15XiYn/+GDQgtGMuQY3aJhpwJemZZoAdDIWrtnafGLh8dbHbTNw0O2nHKxrZNUmjL4AyL+sgvz9jop4uTdPimk+rvTtO1nhm63+enF5Ygjboi5PbHKBpfLJojoiOUoACuVPAvYTWq26Yph6iEQAOfZzGVY2LzBlPk8i/R5EySBh0xau8P0ZnOWfrjupu+OOugbVXWou+0VcG5GNt93ADYU2dlASrcb/vrmoNO33PTrWc+ejIcYCsbVjR+3oiCcILCnSRch+cfeCnwK+cJLPJzWtgB7efzy6Jj5PIUimXo5UScrjwN0uGWGfqqwcnqAP9X5tf+Aas7diQAeUeIb9cpK/1x1UENnR7q6PfTiCtCgYj5FgnCCQpc6vYUPdRSbDs+Rl1DQTZRK2ng+8QWc2T1LtKj4QW68iRA1e0zy2e2cxO0p85G22us9MFxy/K5TQZJGBAcKm6+PWdjhQLXe2bo8fA8+QLxojmmF0IKCodVJX4TeICn2t0UX9Q/OCHCwOq2kMySw79E/ZNxFiS51Rugi92zVHfPQwduTNH+Cw7aXTdB7x+3SKEdGGa5x4HJsGGhfSEFheDEn9ccRQ+nFHvP2NgZZauPVCZPgYUMTc2nyOJOUv9kjJ5ZInT7VYDOdProzxtu+rrRSZ/U2LZMzu3D42PMog52C/wc0wshBYUQ6oOBuaIHVApciegcDFEux08xOTAyuTwtpnMUW0RiO0vBhQz5QikanU5QW1+Ijt+eof1NU7T9pI0lc/nnW65g94JtH/Jg/PzSEyEFBezeBRbt4R9UKX67Ok2JJamozY5MNk/uQJp6LDG6/CRIR5HcbnLRjhorO5u8d2yUndkQFBB9O7mn1kr+UKJoXumNsIKC5VfBDHM93js2Rp5Aip8fcmg0EJGED0WfPU73Xkfo0t/J7cPNU/TzZcc/ye2PBEluI+k/6owUzSkjEFZQKFOBtx5swPgHVgpEwuQwdiC5HYpnyen/N7ndMRCi60/9VHt3hv64Nk1fN9iZ0PS2iyuAEjGUP/HzySiEFRRAEk9pBfqnp2yUQxhMDtMHhIaw/0wwRS298yzMb4SgcJ4+1+GmyIKx56aVCC0oJHmPtSg3w+y3J/h3K4cJA4J6bonQV+cmls9bJd6VHqCUCSkXfh4ZidCCAl2Dc4rNMA/d8rBcjRzGj6U0VqQl6hgIKN5VaAkaTfSNh4rmj9EILyj3fIJVBfAPsBSfnrSyw7Mcxg0kmoedMbrY7WNCUrqb0BIU3CLfZFTydi2EFhQCEzDH33dJWSkSVrI7/SH+ncuhw4gmsvTwTYiOtkyxujr+XRgJzk2xhHnnppUILaip+Qy1DuWZfRb/EEuBvfqxlmmWyJRDn4Fbzy0v5uiLMzZWHW7GirSS367YhSiKLSCsoGAR3DH6r48BTEb4h1mKz09P0Ji7fCrQy2GkM3nyhZboUrePlfPwz9ws4DmP/mD83DETIQWVXEoxB9OVjju/N88XPdBSILF477UsRdrsQAoCfadwPjrX6WW2bfyzNhMIu/2Vn12t5+ePmQgpKOtMlq5z3Sxgc/XuMWWdOo62uFndmhwbGzOhJbr/OsCu+eOKDP98zQZ3onDLF54V/NwxG+EEhWZl8H/jPeFgQQwDR/7hluKTmnFyzcltn5qB8iKXP0mND2aYt6FSsxwz+LbBZugdJzUIJahYMs0alvFiApdfER1sCysuymzvk9E+JQNCcviSdKx1iolIdCdefEb3nLnJ27UQRlAIkaPnLNqr8GIqgGgfjPT5h1yK7y64ZJJ3lYGqcpyPXk9G6eBNlynthDZiOPr+0VHqHpovmjsiIYygZsIZ1mGPF9FKsO376rxbUSkL7vZMz8sK9JUjm80zZ932V/P08yU7q33jn5veIFe4/8Ik/XjJSW8dKv7nqwGb7sZOj+H3m9QihKASyRTrcg5Tel5EPH/eCjJHU/6Bl+LkvVl+Tm3JARemN84Ynb7vpW8bJhR7yGsJoq8Hbrjo0ZsQvbQt0E+XXIp+GAFyXbDfNrtOTwlCCMoTzChu8oxoH7y4+YdeCtyTSm7hi4fY2r2yRenPa0765ITFlPMRrt9Ut7lp3JNg/vPxxRxd7ParuoYP514U24pQWrQepgsKD6ljTHlvI3SHUBrtAzAy2UoDld6JxSw9HgnT5/XKfni0hnnsHR+l0/c85An860GPM23v+ALzSuf/m9VAEOqv1iC9dGTLol2p6YJCzokXzXocuRstevCrcajZzX6pK33AlnpyJsHKgvaeHje8JAjbN/Tt+uminW4+87OmDPyYmkvR7vrJov92NSAmNCdA54/bb/JsJ8PPH9EwVVDhWJp1I+cFsx7orK70V+6zehvZZ9fv1FGuA9sobOuwGsAyy2ghAWwn4eLbMxKi+WiqZHQ1ksjSr1eVWRoUQEtUNPbGO7/aR9TnzFFC8FXKVEENTWdZs2ReMEpAO0z+BZTivaNj1N4X5N9v2Y+FRIbu9wfo96tO5qHAf2+9wYqExnYXH/nI4o6zotkSOmIjnc0zDwqlOUTw8ckJ1up05TtH7190qufnkUiYJihsCe6vKH5VC5qAKX1BVW1udm+nEkY4nqYbT/3soP62CWFvgL+7tXeO5bJwZltv3OkLsR82/s9ZjXeOjLF2piubvBV4bs8WzSWRMEVQCERYvGsncdcDwYndp51FL6MUe+omyOopTzNMbJ/gjOuYTdKFhzPsnMJ/P73BNrJwPnowEGBN7JQMfPaRqSTtPaPspsDy3zVC3zZ56eIqTbixowkuFM8pUTBFUPiVfWQt/cDU8GdLUNGZAQlMuPEo+TUVZeCzzoZT9MwSppo704obKGgJntve0zZmd/3CGmFmmWoGnGwPNk8rzjeBT+vsbPfBv+uVvLDnhA2hmyIo55zyvNNaoLv5tiplDdr+vD7NciDlMLyBJRat+/WKw5QiVYS9v22cYNE6qzvO/CI2Mhoe+lkfX/7PXw28y9pHyaL3zHNzAE3wxDxLGS4o1Ow9mdj86gTQtRylSPyLKQX28LAgFnVg8URZUO1dD+2uHWftR/nvYATfNU7Q4+HlaF1a4dau1OgcirLqCP7PXw0keo+2R4vecSlQUfPaJeZZynBBReOportOm+Gv1pDiX8ErT8Uyw8QZA7dhbd4EHW520TsbKBjdLNgyo74Oq+HoVIz/iBsaSFMgsMD/XauBz/Dj1Vm6+FL5Dy1uc0fi4q1ShgtqYEp9Inctah8m6ROF1+P31E+yEK7Zo3ClvGckTH9dN6faGyKCL0Rtu5tGp+OaJb8R1v7pkrJgEUAQ4rOzLjr7JFX0btfi1iCR3S9eotdQQcUSKWoZLH44mwHRoK8a3YqCE2DQaV60D5PWMh2n60/89GOTfUNXGDYL+m4hd4Uzmt2XLJmE3ehAauLcg1lVW71t1eNU3Rkveq/rgUQvbBLiyeJ5ZiaGCgq/KPyD0YIDKrZ9h1u8/DzQfaDau88WpWO3pliXezPyR1iRcKUdVRX+SErziCf+vO6RCH1YpSLJfHCYDraFSuablHB3JM/ymfw8MxNDBdVjU75HVgPKU947ruxFbj9hoflIhp8Pugz00O0dj9IPTXY2odWEj7UC1d4n77jJPb/I8kdarkgrx2wkTdtrlEVcC/xwxbdhMQEEJ5zzYm37DBNUcCHNChz5h6IVX19QZoaJ7Qi6ses1MGnnIinqHAiy2jr+79cbiBbbut11VuYPsbLaW6+BxgDojsh/lrVAUl5NEGI1eu1ZFjnm55tZGCYomy9DNweKH4hW1HTGFZ2j8O/AFSmZ2nhIuNRA0nPYFaMrj2dNqfYGKFL964aT2vvmS1Z76zHQ6O7UPWV1lQXgsXiya/18kxJghBoT6BxliKDwC/LKqexG7ka59DLPCir5l1cKlMJYPZt3RcLuCfVsj4ZDdLx1mhkvmrGt23nSSmc7vOychp2AXts6fuDcBA/E948pD5HjlsCBthB7X/w73CieoDjnKEMEhUnXpUGp0Xr8dlOhGebhUbr/OrSpiYcVqe3lPH3XOGmad92uWivdejFH0/OLlFxSVxakxRh2JeizemU/YgAh8u8uealplTq9jYIfa37OmYUhgsLFMCzN/IPQGtSAQSz8iyzF0RaPajNM/CKjguBqj7rQsFZg9UPOCtcmYLRiZl/h+WiGfrmi7n4Ttnow2uHf22a5NZQvmnNmobugUMQ47svout0r0KTCDBNdzx2+9bd9iC7jIuSIq2BJrCyaqCU4j6FVz8EbLuoeDm24tk6rgXzahW6/qnMi6vROP14semdaMSfIPSndBYUbln1O7X+VSoEQLPwHlNhjYftxtz+06qU4rEYoUkW07uitKdYFnf8z9Aar0dfnJuh81wzz0FNb7a3X6BgMq1qh3ztqoSN3IkXvS0ssXjHC57oLaiGRpi6L/tu9AjDD/EihK9L+Jhdbgfjh8i+yBmL7z08qbpqtJRDS9xcmmb84CmZRqiTKeO1I0IfVyvtB4bv8dM2/6v0mrUDBNT/3zEB3QSEgUcqrXC8KZpj8iy0FVrKZvzseQlgTfxepopO4GfV1YF/jJPVPRpnpitbVDJsdvlCa9l9wFH3mtfj87BQ1PF37fpMWwJskvmj+tk93QcH8n//yeoOLh28r3JKcvDtLb5wLdOimyxQDSAgXnhCHml2sSFUwDf0zEAA50+FTtJ0uAP9E3hdCL1qGxPCb0F1QY15jzk8rqe9eVLztwz0cNZNEK1DNsO/8JDU9mmEro1bV3nqMTC5PHQNh+kBheReAFTbyTfy70YvmASLHnPnnKN0F9XxS371zKS69ytOXjcqifUYDIcGgv3MwSFNzi5vKhRk1kATfXafsBwogvP/jtVlNk7frAX8SNJvg55/R6C4oVATzX94IjrRHil60mRSKVMem4hSOZ4Q7H602WJ1eg7pzE1IXSGHw70Rv4I9vtteE7oK6poF3xEa49DKnOMmrF8jTINyOsiAUzJbbgOYPNCsrOi7wUY2N6rqXit6HEeA2g9n3o3QVFK4o81/aSPZfVle0qQUQEUqR4M2AQllvUP9qbz0GQvUtL4Ps2gn/HVcDLVsP3g5v6krGZnhozbEkPD8PjURXQXmD5gqq/vGSoeHv7TUWOt46RQ+HghQwqNpbj4GVadARV1Wnh8AO3Hy1rtNTA4xTza6Y0FVQuLLBf2kjgRnmrnp1+/+NsOuUlUXrxqZjy5bE5XE8WnXAouuXyy7FzrwA95sa/vYhNwvct/OGKlhQ8C7nv7TRICfFv3ytQJHqnb55thqJVM2w2VFz10f/USEmXMk4Z0Dydj1ahoimAuaGznUVFEw0+C9tNMhJfXBceanMWqBhGc5HMIHsGgoyr4hKGtjqPRqJqlqZ0E3y+P2FouduBrjAanYuSldB6eUhoQY1ZphrsadunE7cnmaWxGZXe+s1cL8JXR/5774aMMb5+bpfk6vsWgDf84nZChbUAwOLYlfj8qu/S5E2EEJHQAMXCGFJDBNImPZX6nD5l2h/k/LzJlaxvQ1TQmz1VmKdqWBBmZXU5UEFOi638ZNiNbC1g1MR7h7BvlnksiAtRjSRZf2b1EREUacHk1H+WZvNqDdjanJXV0FtpDuhHqAE5gsVpUhr3ZOqtAGrs66hsOoVXKkPudGMeLKVK6i2N8Vf2CzUeKAfafVuGUGNexfpExV+esg3/XBltuj5igLq+cy0FdNVUK1DxV/YLM4+SdMHVcqifdtrrDQXNcYM08wxG8nQtyr99FB0rPdlwc2AVI0UlEF8rTDah+vd916H+flXUQO+hEdalD2PAp/W2llPLv65isSbSl6hbg8Xf2EzOdEZL5okpVg2w5wWolOHHgPf6vrTeXW+EMcsdLg9wqKm/HMViWFPBQuqXZCgRAGUIn1Yrexez+entTHDFG2gLOrVRIw+PaXu3IQ6Pdwz45+paIx6KzgocV+QsPlKflVohvnu0THmilom15YUD28wRb9edhV937X47IyTGp+bW6enlLFKDpt3WcUT1OnHS/Suwu56x9s8FElUTjIXPw7IN6mp0/u4xsaeGf8cRQQ9o+AByc9DI9FVUE816qWrJbhesPecMsfTHSdt5PRXzrbvxvOQYvMagFW6uiNW9AxFBdfgJ03uaqiroPpc4gkKh2o0aOMnz2rcHwiX/XUMjDeuJL11QPnKhMDMb83zZXFuKgCjFrP7RekqKIQw+S8tAmrMMH+46Cob/4fVhjeQom8aJou+22qgTg/5JrPvN6kFVmLTlXx9A8sv/6VFQE0FOrZIaJdSrgOGMDXtXlV1ep+cnKBTXcb46WkJSt1mKvmCoS8sViXyStSYYZ55MMfP07IYyKPdfqWufxNWJ9TpiZ5vKkXHmPk9d3UV1EIyVfSlRQEZf6Xbvm1V1rKsOJ+cwXdUVm5V4PfmedNMVjbLo/EcMwbi56GR6CoooGcb0M2AJK/SaB/oGVvg56vQA506dterOTcNs+fBP6dyAg0D0O2Fn4NGorugOgW4ZLgah+9EFPc4OnzLXTbBCdxvOnBT2RmxAOr0yiXfVAr0H+sToJOh7oJCu0b+y4sCghOoUeMnVyk+q7eRa058s8qldJ5uPJunt1U0PkAV/tG7ODeJ++O3Hjdeo0piC1gx23xihs4L7Ls0UzTBSvHe0TG60x/i569QA/my3vEF2nFSeZ0eTP1/EsgXYqM0DxJNmZyDAroLalbgSB8425NS3Lm9+rab4ib2tV1voE7vm0blvhAAfnqwreafS7mBHs6wc+Pnn9HoLihY4xrRsHoz7KxTNgnhpGr1JPl5LMSAE9Opu8pW2wLwhTCiGZoR3BvJU9LkgATQXVCxRIq6x8X+BfxDoRkmfBc6B0OUFWyRwlav9WVQVfL2/eNWqiqjOr31QOcNfu6Zge6Cwq/GwJTY56g6FWaYB2+6KZYUqwL9mWVBVfIWPwzlVqe3HmYXxRbQXVDA7s8wE0L+IYjC+ecZ+kqhKxK6+M2GxYn2OWaX6Muz6vJNKLvCd+afQzkTNjmhW8AQQaEESRRLsdWAK5LS1qDNL4L8vDZlRJNZqmrzqLJORp0e7Kn571/OtI/ki+acWRgiqGg8Lfw56lSXcjPMvWftpid5l/s3BdidJf7zrQZ8yI8I6qe3GYYEaAVawBBB4Urya1dW6G1f04scu7KgJISOG6+jbnOjff32OG1XkW/CZ8b1/3JO3pYCFRIidH8vYIiggHMuw5Jv/AMRib9UeKAfa5vh57hhIxDL0t7Tys9N4JsLnrJP3pYCdt8Jk9uArsQwQS0kxD9Hwfge4WR+Mpbi42oLq5kzemCr+X2TOpOVnbV2OvtE3Mr/zYAIspm2YTyGCQogV8A/ENHAto+fkKVgZpgDxpphpjJ5auqeU5VvQjrg2L0oq67nv2u5g/o9s2/o8hgqKE9Q/FAtTEn4SVmKZTNMNytGNWJgZXoxvqDKTw91er9UQJ3eaqBdUnBBnPMTMFRQSPKKZn7Jg04dSi8efnFmgmxeY1yR3IEU7b/gUHzdBGC1rbR8UwEEI15PZYUoN1qJoYICaIjFPxzR+PnGXNHkLAW2ffdf61+BjtvCB5s9qvz08KPQWGYmK2pAfaho2z1guKBwo/KW4NE+dOrAdomfpKVAYlVPM0yku64/V257Bt49aqG6R+I1Q9OSLkuOYgJF9woYLijkpPqcYtf2qTHD3FlrI7tPn20fil5f2mKK+1qBd46M0R+3AhVVp8eDfCY6FfJzSwQMFxTwhjLUMijuC0fy86/WoKItFsp+7g+EdDHDxPnsCxV1eiid+qbJU9FbPYDtntlmLKthiqAWEil6Nil25EmNGeaPl6c0d0Waj2ZY/yal9YVgx6lJqi9jXwiloKkaP6dEwRRBgcnZjLCOSECNGSYmPQSg1YCfXktvQNVWD6tpdWe86HtUGpgzcQHPTgVMExSW7IcCdudYCTPDVDipz3VpZ4Y55Ewovp8FIOjfmwNFn7/SQHcNkQphS2GaoIBtNss6JvAPThTUmGGi8TPabG52eIIp+kxFnR7OcKjTq7Si11LgmoZoiVweUwUVT6apY0zcsxSSvF80KCtFAs+sMV4fqgbC739cUxZdLACTlTM9lX9uQmQPHd6TAtXtlcJUQYHpgNgmIYfuhBVf4DvY7OY1onjAp+L8w1lVdXrbqsep6v5CWfqQq+X+aJ7mBLqmsRqmCwrAQpd/gKLQ9CLLLubxk7kUu+vGyb2BTh0IuT8ejdKH1crPTQhY/HJjbkuICccCtEbi542ICCEodEwQ2Wps3yVv0YQuBcww2/vUlyLBF2LfBWVWZgW+aJxmYuc/ayWCrhqi5p14hBAUChyRWxD1Ri9ckZTkg1C4WtXmptii8uDEYipHx1vhC1H8563Gp6cq934TD4pgcTmVnzOiIoSgAKI3KMfnH6gIYFv1qUIzzM9PqzPDbHw4pyrfhAuQSDrzn7FSwR06kS4QrocwggJI9qJPKv9QReCPlkDR5C4FggqP3igrReoZiyla+Qrg30V/4K0QIgdtb/LMKJWfJyIjlKDwSyRi53hwunuJ3lfYqeNQs5sW1jDDhNZwbtpTryzHBVAJ8W2Tl1Vw8J+tEsFtXJhXLpWYJyIjlKAAtn4iek9gIiu9Hv9RtZWm55d4Hf0zEISB6JQU3xbYWe+g+seV5ae3GjhL99pzrOaTnx+iI5ygAK7Ki7b1wzYLpUhK70nd6i1thokgxOWeOVV+eriSgav5/GeqVJBzEskaTA1CCgp3poY9WVa7xT9sM0Fn9I9rlG3Tvjjr4LXERt9knLYdV7Z1ZBwcpoNt4S1zbkLOyYGtXhkFIlYipKBANJEWLuF7sTdHX6ooRZqY+f/bvnAiSx9WKzdZgenmd5dmij5HpYIf0H6XGF00NoqwggJo1obln3/wZqKmAv347X/NMMPxLH1/UbmfHvJSu+udFdO/aT2Qb+qZKK8QeSmEFhQiPEjqieRBcaYnRduqlK0yn9RYKRjLUGIpR41dflUhcjRDw7lpK5QWgS6r+JXkShBaUAC/WBOz4rTDwQT/qlHZxcO3D4/QvYEIPRqO0Mcq6vTePjK67AvxUqzVWS9wLQOBqHI9N61EeEEBPOhRrzhBiqr7Cs0wDwzTrtoJ1kqU/2dr8eX5abr0Sqzzo140D+aXgxAl3ns5UhaCArAfe+XMCbFSIeL2QZXyFUcNaKlzfosUvSKiN+LJVoyYQNkICqDi+Lk9R9cFENXP1/1FYtgsuN+0Ver04A2BKxnlHoTgKStBgVAsTU8FcEw6/XiJJVx5UWwUJHoPtG2NOr2CmES/fbsRyk5QAB0RH1nNFRVyUp+dVR4GXwvcCP7u4gxd2AJbPdToDU5nhXYu2gxlKSiAQAUSv2YFKhDtQ+W3ko6H67Gjgvs3rQTn336XeAb/WlK2ggKopmBnKpOck2ofJlVVPpTivWMWqu6s/Do9bPOwMi1WsJhAWQsKhGNp5pVuhqjQKkapGWYpUGj7Z2uw6M+tNHCvyTJTGXmm9Sh7QQFcQhvzGi8qdAVEAlZpKdJKsFX84aqv4pO3t9/kye7PVFw0bzUqQlAAv36ueVz7MHaC1j5S7oG+ks/PuqjhWWXX6aECwhdOb4mVqUDFCAogQegNpqljNM+KLfkXrAcIcyttfVMAAqypYB9y5Am7rDmKxMq/Nk8tFSWoAoGFNOvuYVRVxcHbys0wkbtCxXql5ptgB4fO7Khs4d/LVqAiBQWQqxqbybIDMf/Steb8swyL1vHiKcW+Cs03IX2BnYFjLrNlxQQqVlAAe3fs4dHlQ+981XdN65thIt9UqSYrqF7B9YutdF4qRUULqgB6sfa59M1X1XcvFgloJVjBzlXgZcFbg8tRPP6Zb1W2hKAKeILLZpoof+EnhhbsOGUvEhJAnR6aDlTSZcHmQaJnEzmaL1MzFb3YUoICqK7AlQFcrdc6aPH7rWIzTLjCfn/FVzHnJjwzbKFhSlqp9XibYcsJCiDJOBdNs2iUlm1Jse17/9j/vye167SzYur07o7kyTqTYRX//DOVLLMlBVUAwgrH08w/W4vzFTPDXOGKhDY4lXC/qVAhjjKvrR50WI8tLagCLBoYStNjW44Zwmw0Iogz0l8tQWbGAo/zQ7fDRf9OuYCtXctgnl7Yc2XTSkYEpKBWgGsFMAvptWepfXhjZ6yTXQnafnKSvr/sY7V+/D8XHXxn9GN67coy91a5IqlDCqoE2AoifzXqyVL3uLqKCwQfsDI1PMsU/TORQfi7x5ZjZ6RAVAppo0hBrQGEhYoL1AfinKXUH7CcKshRDY5mdzAVhTl/JRmmmIEUlApQUoOK9m6b/pUXeoHPfWMgz247Iy/Hf0fJ5pCC2iAIHY/7sqzk5t5onlqG8ppECrUGaQHUM94fy9NLR4458ZZjm5hyQQpqk+CsgXDyVCDDzDgxaWEgg6CGljkuJeDKCs5C90aWz0O4yTw+kyVvKFN2nQDLFSkojUGkEAJDhMwdyDAbaSSQcZ2ky5JnzeS0WMnQPwsX+CDeF/YsvZnOspo6bOPmIml29tsqt2RFQgpKZ3DIh/8czl8o1VlILE92VGbPhDJsCzbuy9CIJ8N6YiGBOji1zJA7y8qk8M8gTKyCs5HlSgX8OVh18Gfiz5biEQMpKIlEQ6SgJBINkYKSSDRECkoi0RApKIlEQ6SgJBINkYKSSDRECkoi0RApKIlEQ6SgJBINkYKSSDRECkoi0RApKIlEQ6SgJBINkYKSSDRECkoi0RApKIlEQ/4Pvt102w1dlfwAAAAASUVORK5CYII=;" vertex="1" parent="DxSVKQ_-vADC1yZE9kcd-14">
          <mxGeometry x="220" y="10.000000000000018" width="42" height="42.59" as="geometry" />
        </mxCell>
        <mxCell id="DxSVKQ_-vADC1yZE9kcd-40" value="Добавить путешествие" style="rounded=1;whiteSpace=wrap;html=1;fillColor=#f5f5f5;gradientColor=#b3b3b3;strokeColor=#666666;" vertex="1" parent="DxSVKQ_-vADC1yZE9kcd-14">
          <mxGeometry x="40" y="300" width="200" height="20" as="geometry" />
        </mxCell>
        <mxCell id="DxSVKQ_-vADC1yZE9kcd-41" value="Реклама: Тур на Байкал от 15 000₽" style="rounded=0;whiteSpace=wrap;html=1;fillColor=#d5e8d4;strokeColor=#82b366;" vertex="1" parent="DxSVKQ_-vADC1yZE9kcd-14">
          <mxGeometry x="15" y="370" width="255" height="60" as="geometry" />
        </mxCell>
        <mxCell id="DxSVKQ_-vADC1yZE9kcd-44" value="" style="shape=image;verticalLabelPosition=bottom;labelBackgroundColor=default;verticalAlign=top;aspect=fixed;imageAspect=0;image=data:image/png,iVBORw0KGgoAAAANSUhEUgAAACAAAAAgCAYAAABzenr0AAAAAXNSR0IArs4c6QAAAARnQU1BAACxjwv8YQUAAAAJcEhZcwAADsMAAA7DAcdvqGQAAAMtSURBVFhH7ZddaFNnGMffCw94M2lvdLtq6xJKpUpicU5sh9qqm1rrZApbrbMXMpibMrFarOLXhG0X0zudiIzBxhiTXVgv7NjNtgqOOdbMapombdKcePJBTtI03znJT84JvTC0kzZBvegfHnh54f09v/d9Lg5H8IIjSjeedyoukEpnCEdj+IJhXF4F+7jMsMvDA+fMVbZAJptDnZzC6w9hH/did/twKyECkRiJZJqcpqHlC6SyGtFEGn80gScUxSEH+W9MnrtAPp8nlkjyOKTi8PiwOT1GPfQ8xh2MGA30RsmsRj5fKJ4pzENAP5TNaSTTGdTYFEpINZ502DVh3FJvaHN5+cfhZsg5gd0bMMBzFiidyXQVG8k4vQreQBi/OkkwmsAfTRqAETlQGQEdoC/0jWlAJJ4mmckZs3sakFkQeLkFxoNRfrNNcbk/ybHvc3RegXe+hsYzIA7nEF1TiJ1BRJsT8dZfiDfvlC9wa9DBqev/0nJ8CLF7FLHDj+icRHySxXQKrBfAfLqCAqP+BNcHArx38SFi16+INT8j1vYjmgcRrSOVE4jEcygRcCjQfx/O3dSwno4jOgKIVgei+S5i7e3yBQyAvmi5VwTrgA8mEYeyLO8rAhqmAftiiPYFgQWB/xN4xJotv/Pluzf44+Al4r2fw9le6DkAH7bB5nqwVpE1S/jqJGy1UvkCVauvsnflUb5p2I5c/yqsegVazXBgM5zohrMfQ8/+CgrsGKNj/Q2+aOzk1vI6/qyR+LtGwl0rkTQtqpzA0kNxOk5GOHrex7W+QQY+uop32x6wVJMyL8JTK3G/RipfQAfoC7lOMsAGYJMJujZBT1cR0NsN3VuLAMuSBYGXW6BgqSbbbCLWZkXZYGVs3QpGmszYV5tmrLIF7tYtZqi+mtHG13A0vc74++0EvjpP9JefSA3byIVDFDTN+KrOlHkIVKE2LMG5YhmPLDW42jegXOgjNnAbTQ2X8p+Z2QX2bYRP98JnXbB/G4ktTchvmHG0WJCPHET98TsyE+5S3pwjSmcyXSPrGnG+vR535y6Uc72oP3xL6sEQ5Gd/zvlk1h+T55UXLvAEaidJJ+UU7tcAAAAASUVORK5CYII=;" vertex="1" parent="DxSVKQ_-vADC1yZE9kcd-14">
          <mxGeometry x="30" y="90" width="20" height="20" as="geometry" />
        </mxCell>
        <mxCell id="DxSVKQ_-vADC1yZE9kcd-45" value="" style="shape=image;verticalLabelPosition=bottom;labelBackgroundColor=default;verticalAlign=top;aspect=fixed;imageAspect=0;image=data:image/png,iVBORw0KGgoAAAANSUhEUgAAACAAAAAgCAYAAABzenr0AAAAAXNSR0IArs4c6QAAAARnQU1BAACxjwv8YQUAAAAJcEhZcwAADsMAAA7DAcdvqGQAAAMtSURBVFhH7ZddaFNnGMffCw94M2lvdLtq6xJKpUpicU5sh9qqm1rrZApbrbMXMpibMrFarOLXhG0X0zudiIzBxhiTXVgv7NjNtgqOOdbMapombdKcePJBTtI03znJT84JvTC0kzZBvegfHnh54f09v/d9Lg5H8IIjSjeedyoukEpnCEdj+IJhXF4F+7jMsMvDA+fMVbZAJptDnZzC6w9hH/did/twKyECkRiJZJqcpqHlC6SyGtFEGn80gScUxSEH+W9MnrtAPp8nlkjyOKTi8PiwOT1GPfQ8xh2MGA30RsmsRj5fKJ4pzENAP5TNaSTTGdTYFEpINZ502DVh3FJvaHN5+cfhZsg5gd0bMMBzFiidyXQVG8k4vQreQBi/OkkwmsAfTRqAETlQGQEdoC/0jWlAJJ4mmckZs3sakFkQeLkFxoNRfrNNcbk/ybHvc3RegXe+hsYzIA7nEF1TiJ1BRJsT8dZfiDfvlC9wa9DBqev/0nJ8CLF7FLHDj+icRHySxXQKrBfAfLqCAqP+BNcHArx38SFi16+INT8j1vYjmgcRrSOVE4jEcygRcCjQfx/O3dSwno4jOgKIVgei+S5i7e3yBQyAvmi5VwTrgA8mEYeyLO8rAhqmAftiiPYFgQWB/xN4xJotv/Pluzf44+Al4r2fw9le6DkAH7bB5nqwVpE1S/jqJGy1UvkCVauvsnflUb5p2I5c/yqsegVazXBgM5zohrMfQ8/+CgrsGKNj/Q2+aOzk1vI6/qyR+LtGwl0rkTQtqpzA0kNxOk5GOHrex7W+QQY+uop32x6wVJMyL8JTK3G/RipfQAfoC7lOMsAGYJMJujZBT1cR0NsN3VuLAMuSBYGXW6BgqSbbbCLWZkXZYGVs3QpGmszYV5tmrLIF7tYtZqi+mtHG13A0vc74++0EvjpP9JefSA3byIVDFDTN+KrOlHkIVKE2LMG5YhmPLDW42jegXOgjNnAbTQ2X8p+Z2QX2bYRP98JnXbB/G4ktTchvmHG0WJCPHET98TsyE+5S3pwjSmcyXSPrGnG+vR535y6Uc72oP3xL6sEQ5Gd/zvlk1h+T55UXLvAEaidJJ+UU7tcAAAAASUVORK5CYII=;" vertex="1" parent="DxSVKQ_-vADC1yZE9kcd-14">
          <mxGeometry x="30" y="200" width="20" height="20" as="geometry" />
        </mxCell>
        <mxCell id="DxSVKQ_-vADC1yZE9kcd-124" value="Рекомендации" style="rounded=1;whiteSpace=wrap;html=1;fillColor=#f5f5f5;gradientColor=#b3b3b3;strokeColor=#666666;" vertex="1" parent="DxSVKQ_-vADC1yZE9kcd-14">
          <mxGeometry x="40" y="330" width="200" height="20" as="geometry" />
        </mxCell>
        <mxCell id="DxSVKQ_-vADC1yZE9kcd-24" value="" style="swimlane;startSize=0;rounded=1;sketch=1;curveFitting=1;jiggle=2;glass=1;shadow=1;" vertex="1" parent="1">
          <mxGeometry x="850" y="120" width="280" height="440" as="geometry" />
        </mxCell>
        <mxCell id="DxSVKQ_-vADC1yZE9kcd-46" value="&lt;h1 style=&quot;overflow: auto; padding: 9.144px 13.716px; text-wrap: wrap; word-break: break-all; margin-top: 0px !important; margin-bottom: 0px !important;&quot;&gt;&lt;b style=&quot;&quot;&gt;&lt;font style=&quot;font-size: 20px;&quot; face=&quot;Comic Sans MS&quot;&gt;Новое путешествие&lt;/font&gt;&lt;/b&gt;&lt;/h1&gt;" style="text;html=1;align=center;verticalAlign=middle;whiteSpace=wrap;rounded=0;" vertex="1" parent="DxSVKQ_-vADC1yZE9kcd-24">
          <mxGeometry x="20" y="10" width="230" height="30" as="geometry" />
        </mxCell>
        <mxCell id="DxSVKQ_-vADC1yZE9kcd-47" value="&lt;pre style=&quot;overflow: auto; padding: 9.144px 13.716px; text-wrap: wrap; word-break: break-all; font-size: 15px; margin-top: 0px !important; margin-bottom: 0px !important;&quot;&gt;&lt;font style=&quot;font-size: 15px;&quot; face=&quot;Georgia&quot;&gt;&lt;b&gt;Страна&lt;/b&gt;: Россия [▼]&lt;b&gt;&lt;br&gt;&lt;/b&gt;&lt;/font&gt;&lt;/pre&gt;&lt;pre style=&quot;overflow: auto; padding: 9.144px 13.716px; text-wrap: wrap; word-break: break-all; font-size: 15px; margin-top: 0px !important; margin-bottom: 0px !important;&quot;&gt;&lt;font style=&quot;font-size: 15px;&quot; face=&quot;Georgia&quot;&gt;&lt;b&gt;Город:&lt;/b&gt; ___________ [▼]&lt;br&gt;&lt;i&gt;(Москва, Сочи, Казань, Санкт-Петербург и др.)&lt;/i&gt;&lt;b&gt;&lt;br&gt;&lt;/b&gt;&lt;/font&gt;&lt;/pre&gt;&lt;pre style=&quot;overflow: auto; padding: 9.144px 13.716px; text-wrap: wrap; word-break: break-all; font-size: 15px; margin-top: 0px !important; margin-bottom: 0px !important;&quot;&gt;&lt;font style=&quot;font-size: 15px;&quot; face=&quot;Georgia&quot;&gt;&lt;b&gt;Дата начала:&lt;/b&gt; 01.06.2025 [📅]       &lt;b&gt;&lt;br&gt;&lt;/b&gt;&lt;/font&gt;&lt;/pre&gt;&lt;pre style=&quot;overflow: auto; padding: 9.144px 13.716px; text-wrap: wrap; word-break: break-all; font-size: 15px; margin-top: 0px !important; margin-bottom: 0px !important;&quot;&gt;&lt;font style=&quot;font-size: 15px;&quot; face=&quot;Georgia&quot;&gt;&lt;b&gt;Дата конца:&lt;/b&gt; 07.06.2025 [📅]&lt;/font&gt;&lt;/pre&gt;" style="rounded=0;whiteSpace=wrap;html=1;fillColor=#e1d5e7;strokeColor=#9673a6;align=left;" vertex="1" parent="DxSVKQ_-vADC1yZE9kcd-24">
          <mxGeometry x="12.5" y="50" width="255" height="210" as="geometry" />
        </mxCell>
        <mxCell id="DxSVKQ_-vADC1yZE9kcd-48" value="Добавить город" style="rounded=1;whiteSpace=wrap;html=1;fillColor=#d5e8d4;strokeColor=#82b366;" vertex="1" parent="DxSVKQ_-vADC1yZE9kcd-24">
          <mxGeometry x="40" y="280" width="200" height="40" as="geometry" />
        </mxCell>
        <mxCell id="DxSVKQ_-vADC1yZE9kcd-49" value="Сохранить" style="rounded=1;whiteSpace=wrap;html=1;fillColor=#f5f5f5;gradientColor=#b3b3b3;strokeColor=#666666;" vertex="1" parent="DxSVKQ_-vADC1yZE9kcd-24">
          <mxGeometry x="20" y="370" width="110" height="30" as="geometry" />
        </mxCell>
        <mxCell id="DxSVKQ_-vADC1yZE9kcd-50" value="Отменить" style="rounded=1;whiteSpace=wrap;html=1;fillColor=#f5f5f5;gradientColor=#b3b3b3;strokeColor=#666666;" vertex="1" parent="DxSVKQ_-vADC1yZE9kcd-24">
          <mxGeometry x="157.5" y="370" width="110" height="30" as="geometry" />
        </mxCell>
        <mxCell id="DxSVKQ_-vADC1yZE9kcd-51" value="" style="swimlane;startSize=0;rounded=1;sketch=1;curveFitting=1;jiggle=2;glass=1;shadow=1;" vertex="1" parent="1">
          <mxGeometry x="1190" y="120" width="280" height="440" as="geometry" />
        </mxCell>
        <mxCell id="DxSVKQ_-vADC1yZE9kcd-62" value="&lt;pre style=&quot;color: rgb(51, 51, 51); overflow: auto; padding: 9.144px 13.716px; text-wrap: wrap; word-break: break-all; font-size: 14px; text-align: start; margin-top: 0px !important; margin-bottom: 0px !important;&quot;&gt;&lt;b&gt;&lt;font style=&quot;font-size: 17px;&quot; face=&quot;Georgia&quot;&gt;Сочи, 1-7 июня&lt;/font&gt;&lt;/b&gt;&lt;/pre&gt;" style="text;html=1;align=center;verticalAlign=middle;whiteSpace=wrap;rounded=0;" vertex="1" parent="DxSVKQ_-vADC1yZE9kcd-51">
          <mxGeometry x="41" y="16.3" width="170" height="30" as="geometry" />
        </mxCell>
        <mxCell id="DxSVKQ_-vADC1yZE9kcd-63" value="" style="shape=image;verticalLabelPosition=bottom;labelBackgroundColor=default;verticalAlign=top;aspect=fixed;imageAspect=0;image=data:image/png,iVBORw0KGgoAAAANSUhEUgAAACAAAAAgCAYAAABzenr0AAAAAXNSR0IArs4c6QAAAARnQU1BAACxjwv8YQUAAAAJcEhZcwAADsMAAA7DAcdvqGQAAAMtSURBVFhH7ZddaFNnGMffCw94M2lvdLtq6xJKpUpicU5sh9qqm1rrZApbrbMXMpibMrFarOLXhG0X0zudiIzBxhiTXVgv7NjNtgqOOdbMapombdKcePJBTtI03znJT84JvTC0kzZBvegfHnh54f09v/d9Lg5H8IIjSjeedyoukEpnCEdj+IJhXF4F+7jMsMvDA+fMVbZAJptDnZzC6w9hH/did/twKyECkRiJZJqcpqHlC6SyGtFEGn80gScUxSEH+W9MnrtAPp8nlkjyOKTi8PiwOT1GPfQ8xh2MGA30RsmsRj5fKJ4pzENAP5TNaSTTGdTYFEpINZ502DVh3FJvaHN5+cfhZsg5gd0bMMBzFiidyXQVG8k4vQreQBi/OkkwmsAfTRqAETlQGQEdoC/0jWlAJJ4mmckZs3sakFkQeLkFxoNRfrNNcbk/ybHvc3RegXe+hsYzIA7nEF1TiJ1BRJsT8dZfiDfvlC9wa9DBqev/0nJ8CLF7FLHDj+icRHySxXQKrBfAfLqCAqP+BNcHArx38SFi16+INT8j1vYjmgcRrSOVE4jEcygRcCjQfx/O3dSwno4jOgKIVgei+S5i7e3yBQyAvmi5VwTrgA8mEYeyLO8rAhqmAftiiPYFgQWB/xN4xJotv/Pluzf44+Al4r2fw9le6DkAH7bB5nqwVpE1S/jqJGy1UvkCVauvsnflUb5p2I5c/yqsegVazXBgM5zohrMfQ8/+CgrsGKNj/Q2+aOzk1vI6/qyR+LtGwl0rkTQtqpzA0kNxOk5GOHrex7W+QQY+uop32x6wVJMyL8JTK3G/RipfQAfoC7lOMsAGYJMJujZBT1cR0NsN3VuLAMuSBYGXW6BgqSbbbCLWZkXZYGVs3QpGmszYV5tmrLIF7tYtZqi+mtHG13A0vc74++0EvjpP9JefSA3byIVDFDTN+KrOlHkIVKE2LMG5YhmPLDW42jegXOgjNnAbTQ2X8p+Z2QX2bYRP98JnXbB/G4ktTchvmHG0WJCPHET98TsyE+5S3pwjSmcyXSPrGnG+vR535y6Uc72oP3xL6sEQ5Gd/zvlk1h+T55UXLvAEaidJJ+UU7tcAAAAASUVORK5CYII=;" vertex="1" parent="DxSVKQ_-vADC1yZE9kcd-51">
          <mxGeometry x="21" y="16.3" width="28.7" height="28.7" as="geometry" />
        </mxCell>
        <mxCell id="DxSVKQ_-vADC1yZE9kcd-65" value="Маршрут" style="rounded=1;whiteSpace=wrap;html=1;fillColor=#f5f5f5;gradientColor=#b3b3b3;strokeColor=#666666;" vertex="1" parent="DxSVKQ_-vADC1yZE9kcd-51">
          <mxGeometry x="21" y="60" width="70" height="23.7" as="geometry" />
        </mxCell>
        <mxCell id="DxSVKQ_-vADC1yZE9kcd-66" value="Бюджет" style="rounded=1;whiteSpace=wrap;html=1;fillColor=#f5f5f5;gradientColor=#b3b3b3;strokeColor=#666666;" vertex="1" parent="DxSVKQ_-vADC1yZE9kcd-51">
          <mxGeometry x="105" y="60" width="70" height="23.7" as="geometry" />
        </mxCell>
        <mxCell id="DxSVKQ_-vADC1yZE9kcd-69" value="Документы" style="rounded=1;whiteSpace=wrap;html=1;fillColor=#f5f5f5;gradientColor=#b3b3b3;strokeColor=#666666;" vertex="1" parent="DxSVKQ_-vADC1yZE9kcd-51">
          <mxGeometry x="190" y="60" width="70" height="23.7" as="geometry" />
        </mxCell>
        <mxCell id="DxSVKQ_-vADC1yZE9kcd-70" value="&lt;pre style=&quot;overflow: auto; padding: 9.144px 13.716px; text-wrap: wrap; word-break: break-all; margin-top: 0px !important; margin-bottom: 0px !important;&quot;&gt;&lt;pre style=&quot;overflow: auto; padding: 9.144px 13.716px; text-wrap: wrap; word-break: break-all; margin-top: 0px !important; margin-bottom: 0px !important;&quot;&gt;&lt;font style=&quot;font-size: 13px;&quot;&gt;&lt;font face=&quot;Helvetica&quot;&gt;&lt;b&gt;1 июня:&lt;/b&gt;&lt;br&gt;- Роза Хутор (10:00)&lt;br&gt;- Сочи Парк (15:00)&lt;br&gt;&lt;br&gt;&lt;b&gt;2 июня:&lt;/b&gt;&lt;br&gt;- Дендрарий &lt;/font&gt;&lt;font face=&quot;Menlo, Roboto Mono, Courier New, Courier, monospace, Inter, sans-serif&quot;&gt;     &lt;/font&gt;&lt;/font&gt;&lt;span style=&quot;font-family: Menlo, &amp;quot;Roboto Mono&amp;quot;, &amp;quot;Courier New&amp;quot;, Courier, monospace, Inter, sans-serif; color: rgb(255, 255, 255); font-size: 12.573px;&quot;&gt;    &lt;/span&gt;&lt;/pre&gt;&lt;/pre&gt;" style="rounded=0;whiteSpace=wrap;html=1;fillColor=#dae8fc;strokeColor=#6c8ebf;align=left;" vertex="1" parent="DxSVKQ_-vADC1yZE9kcd-51">
          <mxGeometry x="12.5" y="100" width="255" height="140" as="geometry" />
        </mxCell>
        <mxCell id="DxSVKQ_-vADC1yZE9kcd-71" value="Добавить точку" style="rounded=1;whiteSpace=wrap;html=1;fillColor=#d5e8d4;strokeColor=#82b366;" vertex="1" parent="DxSVKQ_-vADC1yZE9kcd-51">
          <mxGeometry x="41" y="270" width="200" height="40" as="geometry" />
        </mxCell>
        <mxCell id="DxSVKQ_-vADC1yZE9kcd-72" value="Сохранить" style="rounded=1;whiteSpace=wrap;html=1;fillColor=#f5f5f5;gradientColor=#b3b3b3;strokeColor=#666666;" vertex="1" parent="DxSVKQ_-vADC1yZE9kcd-51">
          <mxGeometry x="21" y="370" width="110" height="30" as="geometry" />
        </mxCell>
        <mxCell id="DxSVKQ_-vADC1yZE9kcd-73" value="Отменить" style="rounded=1;whiteSpace=wrap;html=1;fillColor=#f5f5f5;gradientColor=#b3b3b3;strokeColor=#666666;" vertex="1" parent="DxSVKQ_-vADC1yZE9kcd-51">
          <mxGeometry x="157.5" y="370" width="110" height="30" as="geometry" />
        </mxCell>
        <mxCell id="DxSVKQ_-vADC1yZE9kcd-74" value="" style="swimlane;startSize=0;rounded=1;sketch=1;curveFitting=1;jiggle=2;glass=1;shadow=1;" vertex="1" parent="1">
          <mxGeometry x="1530" y="120" width="280" height="440" as="geometry" />
        </mxCell>
        <mxCell id="DxSVKQ_-vADC1yZE9kcd-81" value="Добавить расход" style="rounded=1;whiteSpace=wrap;html=1;fillColor=#f5f5f5;strokeColor=#666666;gradientColor=#b3b3b3;" vertex="1" parent="DxSVKQ_-vADC1yZE9kcd-74">
          <mxGeometry x="10" y="290" width="169" height="20" as="geometry" />
        </mxCell>
        <mxCell id="DxSVKQ_-vADC1yZE9kcd-82" value="Сохранить" style="rounded=1;whiteSpace=wrap;html=1;fillColor=#f5f5f5;gradientColor=#b3b3b3;strokeColor=#666666;" vertex="1" parent="DxSVKQ_-vADC1yZE9kcd-74">
          <mxGeometry x="21" y="370" width="110" height="30" as="geometry" />
        </mxCell>
        <mxCell id="DxSVKQ_-vADC1yZE9kcd-83" value="Отменить" style="rounded=1;whiteSpace=wrap;html=1;fillColor=#f5f5f5;gradientColor=#b3b3b3;strokeColor=#666666;" vertex="1" parent="DxSVKQ_-vADC1yZE9kcd-74">
          <mxGeometry x="157.5" y="370" width="110" height="30" as="geometry" />
        </mxCell>
        <mxCell id="DxSVKQ_-vADC1yZE9kcd-84" value="&lt;h1 style=&quot;overflow: auto; padding: 9.144px 13.716px; text-wrap: wrap; word-break: break-all; margin-top: 0px !important; margin-bottom: 0px !important;&quot;&gt;&lt;b style=&quot;&quot;&gt;&lt;font style=&quot;font-size: 20px;&quot; face=&quot;Comic Sans MS&quot;&gt;Бюджет поездки&lt;/font&gt;&lt;/b&gt;&lt;/h1&gt;" style="text;html=1;align=center;verticalAlign=middle;whiteSpace=wrap;rounded=0;" vertex="1" parent="DxSVKQ_-vADC1yZE9kcd-74">
          <mxGeometry x="21" y="10" width="199" height="30" as="geometry" />
        </mxCell>
        <mxCell id="DxSVKQ_-vADC1yZE9kcd-85" value="&lt;div style=&quot;text-align: left;&quot;&gt;&lt;span style=&quot;background-color: initial;&quot;&gt;&lt;b&gt;Общие расходы:&lt;/b&gt; &lt;i&gt;35 000 ₽&lt;/i&gt;&lt;/span&gt;&lt;/div&gt;&lt;div&gt;&lt;font face=&quot;Helvetica&quot;&gt;&lt;br&gt;&lt;/font&gt;&lt;/div&gt;&lt;div&gt;&lt;font face=&quot;Helvetica&quot;&gt;█████████░░░░░ &lt;i&gt;70% от плана&lt;/i&gt;&lt;/font&gt;&lt;/div&gt;&lt;div style=&quot;text-align: left;&quot;&gt;&lt;font face=&quot;Helvetica&quot;&gt;&lt;b&gt;&lt;br&gt;&lt;/b&gt;&lt;/font&gt;&lt;/div&gt;&lt;div style=&quot;text-align: left;&quot;&gt;&lt;font face=&quot;Helvetica&quot;&gt;&lt;b&gt;Категории:&lt;/b&gt;&lt;/font&gt;&lt;/div&gt;&lt;div style=&quot;text-align: left;&quot;&gt;&lt;font face=&quot;Helvetica&quot;&gt;- Транспорт: 15 000 ₽&lt;/font&gt;&lt;/div&gt;&lt;div style=&quot;text-align: left;&quot;&gt;&lt;font face=&quot;Helvetica&quot;&gt;- Жильё: 12 000 ₽&lt;/font&gt;&lt;/div&gt;&lt;div style=&quot;text-align: left;&quot;&gt;&lt;font face=&quot;Helvetica&quot;&gt;- Еда: 5 000 ₽&lt;/font&gt;&lt;/div&gt;" style="rounded=0;whiteSpace=wrap;html=1;fillColor=#ffcc99;strokeColor=#36393d;" vertex="1" parent="DxSVKQ_-vADC1yZE9kcd-74">
          <mxGeometry x="10" y="50" width="252" height="220" as="geometry" />
        </mxCell>
        <mxCell id="DxSVKQ_-vADC1yZE9kcd-93" value="&lt;span style=&quot;color: rgb(255, 255, 255); font-family: Menlo, &amp;quot;Roboto Mono&amp;quot;, &amp;quot;Courier New&amp;quot;, Courier, monospace, Inter, sans-serif; font-size: 12.573px; text-align: start; background-color: initial;&quot;&gt;📊&amp;nbsp;&lt;/span&gt;Показать график" style="rounded=1;whiteSpace=wrap;html=1;fillColor=#f5f5f5;strokeColor=#666666;gradientColor=#b3b3b3;" vertex="1" parent="DxSVKQ_-vADC1yZE9kcd-74">
          <mxGeometry x="10" y="320" width="169" height="20" as="geometry" />
        </mxCell>
        <mxCell id="DxSVKQ_-vADC1yZE9kcd-94" value="" style="swimlane;startSize=0;rounded=1;sketch=1;curveFitting=1;jiggle=2;glass=1;shadow=1;" vertex="1" parent="1">
          <mxGeometry x="1850" y="120" width="280" height="440" as="geometry" />
        </mxCell>
        <mxCell id="DxSVKQ_-vADC1yZE9kcd-95" value="Загрузить" style="rounded=1;whiteSpace=wrap;html=1;fillColor=#f5f5f5;strokeColor=#666666;gradientColor=#b3b3b3;" vertex="1" parent="DxSVKQ_-vADC1yZE9kcd-94">
          <mxGeometry x="10" y="290" width="169" height="20" as="geometry" />
        </mxCell>
        <mxCell id="DxSVKQ_-vADC1yZE9kcd-96" value="Сохранить" style="rounded=1;whiteSpace=wrap;html=1;fillColor=#f5f5f5;gradientColor=#b3b3b3;strokeColor=#666666;" vertex="1" parent="DxSVKQ_-vADC1yZE9kcd-94">
          <mxGeometry x="21" y="370" width="110" height="30" as="geometry" />
        </mxCell>
        <mxCell id="DxSVKQ_-vADC1yZE9kcd-97" value="Отменить" style="rounded=1;whiteSpace=wrap;html=1;fillColor=#f5f5f5;gradientColor=#b3b3b3;strokeColor=#666666;" vertex="1" parent="DxSVKQ_-vADC1yZE9kcd-94">
          <mxGeometry x="157.5" y="370" width="110" height="30" as="geometry" />
        </mxCell>
        <mxCell id="DxSVKQ_-vADC1yZE9kcd-98" value="&lt;h1 style=&quot;overflow: auto; padding: 9.144px 13.716px; text-wrap: wrap; word-break: break-all; margin-top: 0px !important; margin-bottom: 0px !important;&quot;&gt;&lt;b style=&quot;&quot;&gt;&lt;font style=&quot;font-size: 20px;&quot; face=&quot;Comic Sans MS&quot;&gt;Документы&lt;/font&gt;&lt;/b&gt;&lt;/h1&gt;" style="text;html=1;align=center;verticalAlign=middle;whiteSpace=wrap;rounded=0;" vertex="1" parent="DxSVKQ_-vADC1yZE9kcd-94">
          <mxGeometry x="21" y="10" width="199" height="30" as="geometry" />
        </mxCell>
        <mxCell id="DxSVKQ_-vADC1yZE9kcd-99" value="&lt;font style=&quot;font-size: 14px;&quot;&gt;[PDF] Билеты на поезд.pdf&lt;/font&gt;&lt;div style=&quot;font-size: 14px;&quot;&gt;&lt;font style=&quot;font-size: 14px;&quot;&gt;&lt;br&gt;&lt;/font&gt;&lt;div style=&quot;&quot;&gt;&lt;font style=&quot;font-size: 14px;&quot;&gt;[JPG] Ваучер отеля.jpg&lt;/font&gt;&lt;/div&gt;&lt;/div&gt;" style="rounded=0;whiteSpace=wrap;html=1;fillColor=#cdeb8b;strokeColor=#36393d;align=left;" vertex="1" parent="DxSVKQ_-vADC1yZE9kcd-94">
          <mxGeometry x="10" y="60" width="252" height="200" as="geometry" />
        </mxCell>
        <mxCell id="DxSVKQ_-vADC1yZE9kcd-101" value="&lt;i&gt;&lt;b&gt;макс. 5 МБ, PDF/JPG/PNG&lt;/b&gt;&lt;/i&gt;" style="text;html=1;align=center;verticalAlign=middle;whiteSpace=wrap;rounded=0;" vertex="1" parent="DxSVKQ_-vADC1yZE9kcd-94">
          <mxGeometry x="4.5" y="310" width="180" height="30" as="geometry" />
        </mxCell>
        <mxCell id="DxSVKQ_-vADC1yZE9kcd-102" value="" style="swimlane;startSize=0;rounded=1;sketch=1;curveFitting=1;jiggle=2;glass=1;shadow=1;" vertex="1" parent="1">
          <mxGeometry x="160" y="630" width="280" height="190" as="geometry" />
        </mxCell>
        <mxCell id="DxSVKQ_-vADC1yZE9kcd-111" value="" style="shape=image;verticalLabelPosition=bottom;labelBackgroundColor=default;verticalAlign=top;aspect=fixed;imageAspect=0;image=data:image/png,iVBORw0KGgoAAAANSUhEUgAAANQAAADXCAYAAABiSn+2AAAAAXNSR0IArs4c6QAAAARnQU1BAACxjwv8YQUAAAAJcEhZcwAADsMAAA7DAcdvqGQAACadSURBVHhe7Z2JV1PJtsbff/r63h7tQduh256159FZEAUcQHFWBBQVRBEnFARkSAhkgCSEQEYyQMb91ld0unmVAOfAGSqhaq3fWnfd7tbknPpSVXvv+vb/pFIpkkgk2vA//P8hkUg2jhSURKIhUlASiYZIQUkkGiIFJZFoiBSURKIhUlASiYZIQUkkGiIFJZFoiBSURKIhUlASiYZIQUkkGiIFJZFoiBSURKIhUlASiYZIQUkkGiIFJZFoiBSURKIhUlASiYZIQUkkGiIFJZFoiBSURKIhUlASiYZIQUkkGiIFJZFoiBSURKIhUlASiYZIQUkkGiIFJZFoiBSURKIhUlASiYZIQUkkGiIFJZFoiBSURKIhUlASiYaYIqjk4hIFo0mKJ5eK/plEUs6YIqjZYIKaHnqp7u40XXzkpdu9s9QzHKAhe5icvhiFosmi/0YiKQdMERRWp5rbU/S/B4bpP4dG6L2jo/RR9RjtPGmhz+vH6ZtzNvrruoPO3HdT64tZej4aoAnPAoUWpNAkYmOKoEBH/xwTEkSllLcODtPH1WP0Y9Mk1d9z051XszTmilB4IUlLS6llSvxdEolRmCYomydKX521FYlmI/zn4Ah9csJC+89P0PEWF9tG3u/30+BkmMbdUbaN9M7HKRhJ0kJ8kQmP/zx6gL8nnkxRJJ6m4EKa5qJp8oXT5JzL0LgvS8PuLPVP5eiFPUdPJ3LUY8vRY1uOuqw5emhd/t/4/55N5qjXkaOBqSyNeLJkm83QdCBDs5E0zUfTFIqlKZpIU2JR/qCYjWmCiiWWqKrVxVYdXiBa8v6xUfqsfpx+vjhJ1a0uOv/AQy3PfdQ1MEe9liCNOCPk9C3QfDjBgiX851TD4lKKwrE0eUMZmpzN0Ig7Sy8dWeoez9G90Ty1DOXpWj/RlT5tuP6aqG0oTx1jeXpiy1GfM0tj3gw5/Bkm3GhiWdT855Toh2mCAo+G5undI+q2fVoAEWO7ub3GQnvrx2lf4wT9etlOR2456WyHm273+unZaIAsUxEWQFlrUsaSKXIHM/RmOstWmc6xPN1+k6cbr4sFYARX+4maB/LUPpJnKx1WP8tMlvyR9JrfQ6INpgoKwYntJyxFE95MECR598gIfXBslD6sGqNPTozR7lor/XxpkkUlWxAkGQvSq4k4PZ3IMvHcHCBNVx4tufr3StY8QExk/a4sW72wmvLvQ7J5TBUUqGufLprU5cLbh0fp45oJ2tswTT9c9dGBthDVPEjQuSdpanyWofPPs9T0IkcXX+bo8qt80WQ3kzvDeRqczlFgIc3OeXL10gbTBWWZitJ/D40UTdZyBqvcB1VW+rTWTl80TNP3l330Z0uQjt2L0onOONU+TNKZx0tMdBd7c0WT3UiweuGMN+7LsG1hcrH4HUmUY7qgFhdTtO/8RNGkrERYzu2Yha1qO+sctPfcFH3T5KEfrs7S780BOnwnQicfJOjskxQ1GSw0bFnvjuTppSPHopA4G/LvSrI+pgsKtL/0F02+rcRbB0fov4dH6d2jFtpWNU4f19hox6lJ+uyMi7676KVfm+fpSHuETj1M0oUX2SIxaM2twTw9Gs+R3Z+RZy2VCCEo5IgQAOAnmqQ07xwdo131Dvr+yvK5DauaXita+3Ce5bz4dyYpjRCCQqUDErL8xFmNj6rGWMUEQt//0TmPVU5ghdt+apKd237Aua01SFUdMap7tEhnelLU8DTNAiUsSFJCPKuBUDySzO5AhgUw+Pcn+RchBLW4uESdr+fonSPKghMoO3puCdPd/nm68thHp+976FjLFP12xUHfNEzQzlNWeuewsj+r0sF2EkLDuW3PaSd9fd5NP1zx0W/N82x1O3o3SjUP4nT68RIT21pCQ36r155jeTe5FSyNEIIC1mnlpUi/X7VTYeSJKJXJUTSRodnQEjlnkzQ2Hae+iSg9GAjSpe4ZOnF7mn657GAVE29Lof0Dzm0Iknx4wkY7aidpzxkXfdm4HJVEkATntpNdy2mAlWH/tjfIZ+VYORX/Hrc6wggqGlukE23LFejrgTC7P7z0j6hWG7lcnoktmcpSLJmlSDzDat9GphPU3h+muo5Z+uWqm3bXTbKcEv/3bFVYkOTQKL19ZIzePTrGRLetepx21jvomwse+v1WgGo6Y3Szb4kcflmBsRJhBAXu9ftZhQL/gktx+bGP18+mxlImT05/irpHF+ji4wAdaZ2hfRectPPUOH1cbaEPjmNyjdJ/D4+wCcd/nq0Kfoh21dno0E0nNXV52NZ92BkhfzjBKmEisUVWkJxILm2JbaJQgnL5Yuw+FP/SSrGjxkKJpSyvC81HNpenuWiGhqeS1PUmSpd75qn23gwdaZ6iXy476euGSdpVa6MPq630zpFReqvEZ92K4Idnd52Vfrtsp5O3p+jKYy91vJ6jl9YQvbGHyeaO0rQ/RnOhxPINgBLzoRwRSlAITlS1Ktv2ocD15XiYn/+GDQgtGMuQY3aJhpwJemZZoAdDIWrtnafGLh8dbHbTNw0O2nHKxrZNUmjL4AyL+sgvz9jop4uTdPimk+rvTtO1nhm63+enF5Ygjboi5PbHKBpfLJojoiOUoACuVPAvYTWq26Yph6iEQAOfZzGVY2LzBlPk8i/R5EySBh0xau8P0ZnOWfrjupu+OOugbVXWou+0VcG5GNt93ADYU2dlASrcb/vrmoNO33PTrWc+ejIcYCsbVjR+3oiCcILCnSRch+cfeCnwK+cJLPJzWtgB7efzy6Jj5PIUimXo5UScrjwN0uGWGfqqwcnqAP9X5tf+Aas7diQAeUeIb9cpK/1x1UENnR7q6PfTiCtCgYj5FgnCCQpc6vYUPdRSbDs+Rl1DQTZRK2ng+8QWc2T1LtKj4QW68iRA1e0zy2e2cxO0p85G22us9MFxy/K5TQZJGBAcKm6+PWdjhQLXe2bo8fA8+QLxojmmF0IKCodVJX4TeICn2t0UX9Q/OCHCwOq2kMySw79E/ZNxFiS51Rugi92zVHfPQwduTNH+Cw7aXTdB7x+3SKEdGGa5x4HJsGGhfSEFheDEn9ccRQ+nFHvP2NgZZauPVCZPgYUMTc2nyOJOUv9kjJ5ZInT7VYDOdProzxtu+rrRSZ/U2LZMzu3D42PMog52C/wc0wshBYUQ6oOBuaIHVApciegcDFEux08xOTAyuTwtpnMUW0RiO0vBhQz5QikanU5QW1+Ijt+eof1NU7T9pI0lc/nnW65g94JtH/Jg/PzSEyEFBezeBRbt4R9UKX67Ok2JJamozY5MNk/uQJp6LDG6/CRIR5HcbnLRjhorO5u8d2yUndkQFBB9O7mn1kr+UKJoXumNsIKC5VfBDHM93js2Rp5Aip8fcmg0EJGED0WfPU73Xkfo0t/J7cPNU/TzZcc/ye2PBEluI+k/6owUzSkjEFZQKFOBtx5swPgHVgpEwuQwdiC5HYpnyen/N7ndMRCi60/9VHt3hv64Nk1fN9iZ0PS2iyuAEjGUP/HzySiEFRRAEk9pBfqnp2yUQxhMDtMHhIaw/0wwRS298yzMb4SgcJ4+1+GmyIKx56aVCC0oJHmPtSg3w+y3J/h3K4cJA4J6bonQV+cmls9bJd6VHqCUCSkXfh4ZidCCAl2Dc4rNMA/d8rBcjRzGj6U0VqQl6hgIKN5VaAkaTfSNh4rmj9EILyj3fIJVBfAPsBSfnrSyw7Mcxg0kmoedMbrY7WNCUrqb0BIU3CLfZFTydi2EFhQCEzDH33dJWSkSVrI7/SH+ncuhw4gmsvTwTYiOtkyxujr+XRgJzk2xhHnnppUILaip+Qy1DuWZfRb/EEuBvfqxlmmWyJRDn4Fbzy0v5uiLMzZWHW7GirSS367YhSiKLSCsoGAR3DH6r48BTEb4h1mKz09P0Ji7fCrQy2GkM3nyhZboUrePlfPwz9ws4DmP/mD83DETIQWVXEoxB9OVjju/N88XPdBSILF477UsRdrsQAoCfadwPjrX6WW2bfyzNhMIu/2Vn12t5+ePmQgpKOtMlq5z3Sxgc/XuMWWdOo62uFndmhwbGzOhJbr/OsCu+eOKDP98zQZ3onDLF54V/NwxG+EEhWZl8H/jPeFgQQwDR/7hluKTmnFyzcltn5qB8iKXP0mND2aYt6FSsxwz+LbBZugdJzUIJahYMs0alvFiApdfER1sCysuymzvk9E+JQNCcviSdKx1iolIdCdefEb3nLnJ27UQRlAIkaPnLNqr8GIqgGgfjPT5h1yK7y64ZJJ3lYGqcpyPXk9G6eBNlynthDZiOPr+0VHqHpovmjsiIYygZsIZ1mGPF9FKsO376rxbUSkL7vZMz8sK9JUjm80zZ932V/P08yU7q33jn5veIFe4/8Ik/XjJSW8dKv7nqwGb7sZOj+H3m9QihKASyRTrcg5Tel5EPH/eCjJHU/6Bl+LkvVl+Tm3JARemN84Ynb7vpW8bJhR7yGsJoq8Hbrjo0ZsQvbQt0E+XXIp+GAFyXbDfNrtOTwlCCMoTzChu8oxoH7y4+YdeCtyTSm7hi4fY2r2yRenPa0765ITFlPMRrt9Ut7lp3JNg/vPxxRxd7ParuoYP514U24pQWrQepgsKD6ljTHlvI3SHUBrtAzAy2UoDld6JxSw9HgnT5/XKfni0hnnsHR+l0/c85An860GPM23v+ALzSuf/m9VAEOqv1iC9dGTLol2p6YJCzokXzXocuRstevCrcajZzX6pK33AlnpyJsHKgvaeHje8JAjbN/Tt+uminW4+87OmDPyYmkvR7vrJov92NSAmNCdA54/bb/JsJ8PPH9EwVVDhWJp1I+cFsx7orK70V+6zehvZZ9fv1FGuA9sobOuwGsAyy2ghAWwn4eLbMxKi+WiqZHQ1ksjSr1eVWRoUQEtUNPbGO7/aR9TnzFFC8FXKVEENTWdZs2ReMEpAO0z+BZTivaNj1N4X5N9v2Y+FRIbu9wfo96tO5qHAf2+9wYqExnYXH/nI4o6zotkSOmIjnc0zDwqlOUTw8ckJ1up05TtH7190qufnkUiYJihsCe6vKH5VC5qAKX1BVW1udm+nEkY4nqYbT/3soP62CWFvgL+7tXeO5bJwZltv3OkLsR82/s9ZjXeOjLF2piubvBV4bs8WzSWRMEVQCERYvGsncdcDwYndp51FL6MUe+omyOopTzNMbJ/gjOuYTdKFhzPsnMJ/P73BNrJwPnowEGBN7JQMfPaRqSTtPaPspsDy3zVC3zZ56eIqTbixowkuFM8pUTBFUPiVfWQt/cDU8GdLUNGZAQlMuPEo+TUVZeCzzoZT9MwSppo704obKGgJntve0zZmd/3CGmFmmWoGnGwPNk8rzjeBT+vsbPfBv+uVvLDnhA2hmyIo55zyvNNaoLv5tiplDdr+vD7NciDlMLyBJRat+/WKw5QiVYS9v22cYNE6qzvO/CI2Mhoe+lkfX/7PXw28y9pHyaL3zHNzAE3wxDxLGS4o1Ow9mdj86gTQtRylSPyLKQX28LAgFnVg8URZUO1dD+2uHWftR/nvYATfNU7Q4+HlaF1a4dau1OgcirLqCP7PXw0keo+2R4vecSlQUfPaJeZZynBBReOportOm+Gv1pDiX8ErT8Uyw8QZA7dhbd4EHW520TsbKBjdLNgyo74Oq+HoVIz/iBsaSFMgsMD/XauBz/Dj1Vm6+FL5Dy1uc0fi4q1ShgtqYEp9Inctah8m6ROF1+P31E+yEK7Zo3ClvGckTH9dN6faGyKCL0Rtu5tGp+OaJb8R1v7pkrJgEUAQ4rOzLjr7JFX0btfi1iCR3S9eotdQQcUSKWoZLH44mwHRoK8a3YqCE2DQaV60D5PWMh2n60/89GOTfUNXGDYL+m4hd4Uzmt2XLJmE3ehAauLcg1lVW71t1eNU3Rkveq/rgUQvbBLiyeJ5ZiaGCgq/KPyD0YIDKrZ9h1u8/DzQfaDau88WpWO3pliXezPyR1iRcKUdVRX+SErziCf+vO6RCH1YpSLJfHCYDraFSuablHB3JM/ymfw8MxNDBdVjU75HVgPKU947ruxFbj9hoflIhp8Pugz00O0dj9IPTXY2odWEj7UC1d4n77jJPb/I8kdarkgrx2wkTdtrlEVcC/xwxbdhMQEEJ5zzYm37DBNUcCHNChz5h6IVX19QZoaJ7Qi6ses1MGnnIinqHAiy2jr+79cbiBbbut11VuYPsbLaW6+BxgDojsh/lrVAUl5NEGI1eu1ZFjnm55tZGCYomy9DNweKH4hW1HTGFZ2j8O/AFSmZ2nhIuNRA0nPYFaMrj2dNqfYGKFL964aT2vvmS1Z76zHQ6O7UPWV1lQXgsXiya/18kxJghBoT6BxliKDwC/LKqexG7ka59DLPCir5l1cKlMJYPZt3RcLuCfVsj4ZDdLx1mhkvmrGt23nSSmc7vOychp2AXts6fuDcBA/E948pD5HjlsCBthB7X/w73CieoDjnKEMEhUnXpUGp0Xr8dlOhGebhUbr/OrSpiYcVqe3lPH3XOGmad92uWivdejFH0/OLlFxSVxakxRh2JeizemU/YgAh8u8uealplTq9jYIfa37OmYUhgsLFMCzN/IPQGtSAQSz8iyzF0RaPajNM/CKjguBqj7rQsFZg9UPOCtcmYLRiZl/h+WiGfrmi7n4Ttnow2uHf22a5NZQvmnNmobugUMQ47svout0r0KTCDBNdzx2+9bd9iC7jIuSIq2BJrCyaqCU4j6FVz8EbLuoeDm24tk6rgXzahW6/qnMi6vROP14semdaMSfIPSndBYUbln1O7X+VSoEQLPwHlNhjYftxtz+06qU4rEYoUkW07uitKdYFnf8z9Aar0dfnJuh81wzz0FNb7a3X6BgMq1qh3ztqoSN3IkXvS0ssXjHC57oLaiGRpi6L/tu9AjDD/EihK9L+Jhdbgfjh8i+yBmL7z08qbpqtJRDS9xcmmb84CmZRqiTKeO1I0IfVyvtB4bv8dM2/6v0mrUDBNT/3zEB3QSEgUcqrXC8KZpj8iy0FVrKZvzseQlgTfxepopO4GfV1YF/jJPVPRpnpitbVDJsdvlCa9l9wFH3mtfj87BQ1PF37fpMWwJskvmj+tk93QcH8n//yeoOLh28r3JKcvDtLb5wLdOimyxQDSAgXnhCHml2sSFUwDf0zEAA50+FTtJ0uAP9E3hdCL1qGxPCb0F1QY15jzk8rqe9eVLztwz0cNZNEK1DNsO/8JDU9mmEro1bV3nqMTC5PHQNh+kBheReAFTbyTfy70YvmASLHnPnnKN0F9XxS371zKS69ytOXjcqifUYDIcGgv3MwSFNzi5vKhRk1kATfXafsBwogvP/jtVlNk7frAX8SNJvg55/R6C4oVATzX94IjrRHil60mRSKVMem4hSOZ4Q7H602WJ1eg7pzE1IXSGHw70Rv4I9vtteE7oK6poF3xEa49DKnOMmrF8jTINyOsiAUzJbbgOYPNCsrOi7wUY2N6rqXit6HEeA2g9n3o3QVFK4o81/aSPZfVle0qQUQEUqR4M2AQllvUP9qbz0GQvUtL4Ps2gn/HVcDLVsP3g5v6krGZnhozbEkPD8PjURXQXmD5gqq/vGSoeHv7TUWOt46RQ+HghQwqNpbj4GVadARV1Wnh8AO3Hy1rtNTA4xTza6Y0FVQuLLBf2kjgRnmrnp1+/+NsOuUlUXrxqZjy5bE5XE8WnXAouuXyy7FzrwA95sa/vYhNwvct/OGKlhQ8C7nv7TRICfFv3ytQJHqnb55thqJVM2w2VFz10f/USEmXMk4Z0Dydj1ahoimAuaGznUVFEw0+C9tNMhJfXBceanMWqBhGc5HMIHsGgoyr4hKGtjqPRqJqlqZ0E3y+P2FouduBrjAanYuSldB6eUhoQY1ZphrsadunE7cnmaWxGZXe+s1cL8JXR/5774aMMb5+bpfk6vsWgDf84nZChbUAwOLYlfj8qu/S5E2EEJHQAMXCGFJDBNImPZX6nD5l2h/k/LzJlaxvQ1TQmz1VmKdqWBBmZXU5UEFOi638ZNiNbC1g1MR7h7BvlnksiAtRjSRZf2b1EREUacHk1H+WZvNqDdjanJXV0FtpDuhHqAE5gsVpUhr3ZOqtAGrs66hsOoVXKkPudGMeLKVK6i2N8Vf2CzUeKAfafVuGUGNexfpExV+esg3/XBltuj5igLq+cy0FdNVUK1DxV/YLM4+SdMHVcqifdtrrDQXNcYM08wxG8nQtyr99FB0rPdlwc2AVI0UlEF8rTDah+vd916H+flXUQO+hEdalD2PAp/W2llPLv65isSbSl6hbg8Xf2EzOdEZL5okpVg2w5wWolOHHgPf6vrTeXW+EMcsdLg9wqKm/HMViWFPBQuqXZCgRAGUIn1Yrexez+entTHDFG2gLOrVRIw+PaXu3IQ6Pdwz45+paIx6KzgocV+QsPlKflVohvnu0THmilom15YUD28wRb9edhV937X47IyTGp+bW6enlLFKDpt3WcUT1OnHS/Suwu56x9s8FElUTjIXPw7IN6mp0/u4xsaeGf8cRQQ9o+AByc9DI9FVUE816qWrJbhesPecMsfTHSdt5PRXzrbvxvOQYvMagFW6uiNW9AxFBdfgJ03uaqiroPpc4gkKh2o0aOMnz2rcHwiX/XUMjDeuJL11QPnKhMDMb83zZXFuKgCjFrP7RekqKIQw+S8tAmrMMH+46Cob/4fVhjeQom8aJou+22qgTg/5JrPvN6kFVmLTlXx9A8sv/6VFQE0FOrZIaJdSrgOGMDXtXlV1ep+cnKBTXcb46WkJSt1mKvmCoS8sViXyStSYYZ55MMfP07IYyKPdfqWufxNWJ9TpiZ5vKkXHmPk9d3UV1EIyVfSlRQEZf6Xbvm1V1rKsOJ+cwXdUVm5V4PfmedNMVjbLo/EcMwbi56GR6CoooGcb0M2AJK/SaB/oGVvg56vQA506dterOTcNs+fBP6dyAg0D0O2Fn4NGorugOgW4ZLgah+9EFPc4OnzLXTbBCdxvOnBT2RmxAOr0yiXfVAr0H+sToJOh7oJCu0b+y4sCghOoUeMnVyk+q7eRa058s8qldJ5uPJunt1U0PkAV/tG7ODeJ++O3Hjdeo0piC1gx23xihs4L7Ls0UzTBSvHe0TG60x/i569QA/my3vEF2nFSeZ0eTP1/EsgXYqM0DxJNmZyDAroLalbgSB8425NS3Lm9+rab4ib2tV1voE7vm0blvhAAfnqwreafS7mBHs6wc+Pnn9HoLihY4xrRsHoz7KxTNgnhpGr1JPl5LMSAE9Opu8pW2wLwhTCiGZoR3BvJU9LkgATQXVCxRIq6x8X+BfxDoRkmfBc6B0OUFWyRwlav9WVQVfL2/eNWqiqjOr31QOcNfu6Zge6Cwq/GwJTY56g6FWaYB2+6KZYUqwL9mWVBVfIWPwzlVqe3HmYXxRbQXVDA7s8wE0L+IYjC+ecZ+kqhKxK6+M2GxYn2OWaX6Muz6vJNKLvCd+afQzkTNjmhW8AQQaEESRRLsdWAK5LS1qDNL4L8vDZlRJNZqmrzqLJORp0e7Kn571/OtI/ki+acWRgiqGg8Lfw56lSXcjPMvWftpid5l/s3BdidJf7zrQZ8yI8I6qe3GYYEaAVawBBB4Urya1dW6G1f04scu7KgJISOG6+jbnOjff32OG1XkW/CZ8b1/3JO3pYCFRIidH8vYIiggHMuw5Jv/AMRib9UeKAfa5vh57hhIxDL0t7Tys9N4JsLnrJP3pYCdt8Jk9uArsQwQS0kxD9Hwfge4WR+Mpbi42oLq5kzemCr+X2TOpOVnbV2OvtE3Mr/zYAIspm2YTyGCQogV8A/ENHAto+fkKVgZpgDxpphpjJ5auqeU5VvQjrg2L0oq67nv2u5g/o9s2/o8hgqKE9Q/FAtTEn4SVmKZTNMNytGNWJgZXoxvqDKTw91er9UQJ3eaqBdUnBBnPMTMFRQSPKKZn7Jg04dSi8efnFmgmxeY1yR3IEU7b/gUHzdBGC1rbR8UwEEI15PZYUoN1qJoYICaIjFPxzR+PnGXNHkLAW2ffdf61+BjtvCB5s9qvz08KPQWGYmK2pAfaho2z1guKBwo/KW4NE+dOrAdomfpKVAYlVPM0yku64/V257Bt49aqG6R+I1Q9OSLkuOYgJF9woYLijkpPqcYtf2qTHD3FlrI7tPn20fil5f2mKK+1qBd46M0R+3AhVVp8eDfCY6FfJzSwQMFxTwhjLUMijuC0fy86/WoKItFsp+7g+EdDHDxPnsCxV1eiid+qbJU9FbPYDtntlmLKthiqAWEil6Nil25EmNGeaPl6c0d0Waj2ZY/yal9YVgx6lJqi9jXwiloKkaP6dEwRRBgcnZjLCOSECNGSYmPQSg1YCfXktvQNVWD6tpdWe86HtUGpgzcQHPTgVMExSW7IcCdudYCTPDVDipz3VpZ4Y55Ewovp8FIOjfmwNFn7/SQHcNkQphS2GaoIBtNss6JvAPThTUmGGi8TPabG52eIIp+kxFnR7OcKjTq7Si11LgmoZoiVweUwUVT6apY0zcsxSSvF80KCtFAs+sMV4fqgbC739cUxZdLACTlTM9lX9uQmQPHd6TAtXtlcJUQYHpgNgmIYfuhBVf4DvY7OY1onjAp+L8w1lVdXrbqsep6v5CWfqQq+X+aJ7mBLqmsRqmCwrAQpd/gKLQ9CLLLubxk7kUu+vGyb2BTh0IuT8ejdKH1crPTQhY/HJjbkuICccCtEbi542ICCEodEwQ2Wps3yVv0YQuBcww2/vUlyLBF2LfBWVWZgW+aJxmYuc/ayWCrhqi5p14hBAUChyRWxD1Ri9ckZTkg1C4WtXmptii8uDEYipHx1vhC1H8563Gp6cq934TD4pgcTmVnzOiIoSgAKI3KMfnH6gIYFv1qUIzzM9PqzPDbHw4pyrfhAuQSDrzn7FSwR06kS4QrocwggJI9qJPKv9QReCPlkDR5C4FggqP3igrReoZiyla+Qrg30V/4K0QIgdtb/LMKJWfJyIjlKDwSyRi53hwunuJ3lfYqeNQs5sW1jDDhNZwbtpTryzHBVAJ8W2Tl1Vw8J+tEsFtXJhXLpWYJyIjlKAAtn4iek9gIiu9Hv9RtZWm55d4Hf0zEISB6JQU3xbYWe+g+seV5ae3GjhL99pzrOaTnx+iI5ygAK7Ki7b1wzYLpUhK70nd6i1thokgxOWeOVV+eriSgav5/GeqVJBzEskaTA1CCgp3poY9WVa7xT9sM0Fn9I9rlG3Tvjjr4LXERt9knLYdV7Z1ZBwcpoNt4S1zbkLOyYGtXhkFIlYipKBANJEWLuF7sTdHX6ooRZqY+f/bvnAiSx9WKzdZgenmd5dmij5HpYIf0H6XGF00NoqwggJo1obln3/wZqKmAv347X/NMMPxLH1/UbmfHvJSu+udFdO/aT2Qb+qZKK8QeSmEFhQiPEjqieRBcaYnRduqlK0yn9RYKRjLUGIpR41dflUhcjRDw7lpK5QWgS6r+JXkShBaUAC/WBOz4rTDwQT/qlHZxcO3D4/QvYEIPRqO0Mcq6vTePjK67AvxUqzVWS9wLQOBqHI9N61EeEEBPOhRrzhBiqr7Cs0wDwzTrtoJ1kqU/2dr8eX5abr0Sqzzo140D+aXgxAl3ns5UhaCArAfe+XMCbFSIeL2QZXyFUcNaKlzfosUvSKiN+LJVoyYQNkICqDi+Lk9R9cFENXP1/1FYtgsuN+0Ver04A2BKxnlHoTgKStBgVAsTU8FcEw6/XiJJVx5UWwUJHoPtG2NOr2CmES/fbsRyk5QAB0RH1nNFRVyUp+dVR4GXwvcCP7u4gxd2AJbPdToDU5nhXYu2gxlKSiAQAUSv2YFKhDtQ+W3ko6H67Gjgvs3rQTn336XeAb/WlK2ggKopmBnKpOck2ofJlVVPpTivWMWqu6s/Do9bPOwMi1WsJhAWQsKhGNp5pVuhqjQKkapGWYpUGj7Z2uw6M+tNHCvyTJTGXmm9Sh7QQFcQhvzGi8qdAVEAlZpKdJKsFX84aqv4pO3t9/kye7PVFw0bzUqQlAAv36ueVz7MHaC1j5S7oG+ks/PuqjhWWXX6aECwhdOb4mVqUDFCAogQegNpqljNM+KLfkXrAcIcyttfVMAAqypYB9y5Am7rDmKxMq/Nk8tFSWoAoGFNOvuYVRVxcHbys0wkbtCxXql5ptgB4fO7Khs4d/LVqAiBQWQqxqbybIDMf/Steb8swyL1vHiKcW+Cs03IX2BnYFjLrNlxQQqVlAAe3fs4dHlQ+981XdN65thIt9UqSYrqF7B9YutdF4qRUULqgB6sfa59M1X1XcvFgloJVjBzlXgZcFbg8tRPP6Zb1W2hKAKeILLZpoof+EnhhbsOGUvEhJAnR6aDlTSZcHmQaJnEzmaL1MzFb3YUoICqK7AlQFcrdc6aPH7rWIzTLjCfn/FVzHnJjwzbKFhSlqp9XibYcsJCiDJOBdNs2iUlm1Jse17/9j/vye167SzYur07o7kyTqTYRX//DOVLLMlBVUAwgrH08w/W4vzFTPDXOGKhDY4lXC/qVAhjjKvrR50WI8tLagCLBoYStNjW44Zwmw0Iogz0l8tQWbGAo/zQ7fDRf9OuYCtXctgnl7Yc2XTSkYEpKBWgGsFMAvptWepfXhjZ6yTXQnafnKSvr/sY7V+/D8XHXxn9GN67coy91a5IqlDCqoE2AoifzXqyVL3uLqKCwQfsDI1PMsU/TORQfi7x5ZjZ6RAVAppo0hBrQGEhYoL1AfinKXUH7CcKshRDY5mdzAVhTl/JRmmmIEUlApQUoOK9m6b/pUXeoHPfWMgz247Iy/Hf0fJ5pCC2iAIHY/7sqzk5t5onlqG8ppECrUGaQHUM94fy9NLR4458ZZjm5hyQQpqk+CsgXDyVCDDzDgxaWEgg6CGljkuJeDKCs5C90aWz0O4yTw+kyVvKFN2nQDLFSkojUGkEAJDhMwdyDAbaSSQcZ2ky5JnzeS0WMnQPwsX+CDeF/YsvZnOspo6bOPmIml29tsqt2RFQgpKZ3DIh/8czl8o1VlILE92VGbPhDJsCzbuy9CIJ8N6YiGBOji1zJA7y8qk8M8gTKyCs5HlSgX8OVh18Gfiz5biEQMpKIlEQ6SgJBINkYKSSDRECkoi0RApKIlEQ6SgJBINkYKSSDRECkoi0RApKIlEQ6SgJBINkYKSSDRECkoi0RApKIlEQ6SgJBINkYKSSDRECkoi0RApKIlEQ/4Pvt102w1dlfwAAAAASUVORK5CYII=;" vertex="1" parent="DxSVKQ_-vADC1yZE9kcd-102">
          <mxGeometry x="210" y="13.700000000000017" width="42" height="42.59" as="geometry" />
        </mxCell>
        <mxCell id="DxSVKQ_-vADC1yZE9kcd-113" value="&lt;pre style=&quot;overflow: auto; padding: 9.144px 13.716px; text-wrap: wrap; word-break: break-all; font-size: 15px; text-align: start; margin-top: 0px !important; margin-bottom: 0px !important;&quot;&gt;&lt;font style=&quot;font-size: 15px;&quot; face=&quot;Times New Roman&quot;&gt;&lt;b&gt;Удалить путешествие в Сочи?&lt;br&gt;Все данные будут потеряны.  &lt;/b&gt;&lt;/font&gt;&lt;/pre&gt;" style="text;html=1;align=center;verticalAlign=middle;whiteSpace=wrap;rounded=0;" vertex="1" parent="DxSVKQ_-vADC1yZE9kcd-102">
          <mxGeometry x="15" y="40" width="250" height="90" as="geometry" />
        </mxCell>
        <mxCell id="DxSVKQ_-vADC1yZE9kcd-114" value="Удалить" style="rounded=1;whiteSpace=wrap;html=1;fillColor=#f5f5f5;gradientColor=#b3b3b3;strokeColor=#666666;" vertex="1" parent="DxSVKQ_-vADC1yZE9kcd-102">
          <mxGeometry x="15" y="130" width="110" height="30" as="geometry" />
        </mxCell>
        <mxCell id="DxSVKQ_-vADC1yZE9kcd-115" value="Отмена" style="rounded=1;whiteSpace=wrap;html=1;fillColor=#f5f5f5;gradientColor=#b3b3b3;strokeColor=#666666;" vertex="1" parent="DxSVKQ_-vADC1yZE9kcd-102">
          <mxGeometry x="155" y="130" width="110" height="30" as="geometry" />
        </mxCell>
        <mxCell id="DxSVKQ_-vADC1yZE9kcd-112" style="edgeStyle=orthogonalEdgeStyle;rounded=0;orthogonalLoop=1;jettySize=auto;html=1;exitX=0.5;exitY=1;exitDx=0;exitDy=0;" edge="1" parent="1" source="DxSVKQ_-vADC1yZE9kcd-102" target="DxSVKQ_-vADC1yZE9kcd-102">
          <mxGeometry relative="1" as="geometry" />
        </mxCell>
        <mxCell id="DxSVKQ_-vADC1yZE9kcd-116" value="" style="swimlane;startSize=0;rounded=1;sketch=1;curveFitting=1;jiggle=2;glass=1;shadow=1;" vertex="1" parent="1">
          <mxGeometry x="500" y="630" width="280" height="190" as="geometry" />
        </mxCell>
        <mxCell id="DxSVKQ_-vADC1yZE9kcd-117" value="" style="shape=image;verticalLabelPosition=bottom;labelBackgroundColor=default;verticalAlign=top;aspect=fixed;imageAspect=0;image=data:image/png,iVBORw0KGgoAAAANSUhEUgAAANQAAADXCAYAAABiSn+2AAAAAXNSR0IArs4c6QAAAARnQU1BAACxjwv8YQUAAAAJcEhZcwAADsMAAA7DAcdvqGQAACadSURBVHhe7Z2JV1PJtsbff/r63h7tQduh256159FZEAUcQHFWBBQVRBEnFARkSAhkgCSEQEYyQMb91ld0unmVAOfAGSqhaq3fWnfd7tbknPpSVXvv+vb/pFIpkkgk2vA//P8hkUg2jhSURKIhUlASiYZIQUkkGiIFJZFoiBSURKIhUlASiYZIQUkkGiIFJZFoiBSURKIhUlASiYZIQUkkGiIFJZFoiBSURKIhUlASiYZIQUkkGiIFJZFoiBSURKIhUlASiYZIQUkkGiIFJZFoiBSURKIhUlASiYZIQUkkGiIFJZFoiBSURKIhUlASiYZIQUkkGiIFJZFoiBSURKIhUlASiYZIQUkkGiIFJZFoiBSURKIhUlASiYaYIqjk4hIFo0mKJ5eK/plEUs6YIqjZYIKaHnqp7u40XXzkpdu9s9QzHKAhe5icvhiFosmi/0YiKQdMERRWp5rbU/S/B4bpP4dG6L2jo/RR9RjtPGmhz+vH6ZtzNvrruoPO3HdT64tZej4aoAnPAoUWpNAkYmOKoEBH/xwTEkSllLcODtPH1WP0Y9Mk1d9z051XszTmilB4IUlLS6llSvxdEolRmCYomydKX521FYlmI/zn4Ah9csJC+89P0PEWF9tG3u/30+BkmMbdUbaN9M7HKRhJ0kJ8kQmP/zx6gL8nnkxRJJ6m4EKa5qJp8oXT5JzL0LgvS8PuLPVP5eiFPUdPJ3LUY8vRY1uOuqw5emhd/t/4/55N5qjXkaOBqSyNeLJkm83QdCBDs5E0zUfTFIqlKZpIU2JR/qCYjWmCiiWWqKrVxVYdXiBa8v6xUfqsfpx+vjhJ1a0uOv/AQy3PfdQ1MEe9liCNOCPk9C3QfDjBgiX851TD4lKKwrE0eUMZmpzN0Ig7Sy8dWeoez9G90Ty1DOXpWj/RlT5tuP6aqG0oTx1jeXpiy1GfM0tj3gw5/Bkm3GhiWdT855Toh2mCAo+G5undI+q2fVoAEWO7ub3GQnvrx2lf4wT9etlOR2456WyHm273+unZaIAsUxEWQFlrUsaSKXIHM/RmOstWmc6xPN1+k6cbr4sFYARX+4maB/LUPpJnKx1WP8tMlvyR9JrfQ6INpgoKwYntJyxFE95MECR598gIfXBslD6sGqNPTozR7lor/XxpkkUlWxAkGQvSq4k4PZ3IMvHcHCBNVx4tufr3StY8QExk/a4sW72wmvLvQ7J5TBUUqGufLprU5cLbh0fp45oJ2tswTT9c9dGBthDVPEjQuSdpanyWofPPs9T0IkcXX+bo8qt80WQ3kzvDeRqczlFgIc3OeXL10gbTBWWZitJ/D40UTdZyBqvcB1VW+rTWTl80TNP3l330Z0uQjt2L0onOONU+TNKZx0tMdBd7c0WT3UiweuGMN+7LsG1hcrH4HUmUY7qgFhdTtO/8RNGkrERYzu2Yha1qO+sctPfcFH3T5KEfrs7S780BOnwnQicfJOjskxQ1GSw0bFnvjuTppSPHopA4G/LvSrI+pgsKtL/0F02+rcRbB0fov4dH6d2jFtpWNU4f19hox6lJ+uyMi7676KVfm+fpSHuETj1M0oUX2SIxaM2twTw9Gs+R3Z+RZy2VCCEo5IgQAOAnmqQ07xwdo131Dvr+yvK5DauaXita+3Ce5bz4dyYpjRCCQqUDErL8xFmNj6rGWMUEQt//0TmPVU5ghdt+apKd237Aua01SFUdMap7tEhnelLU8DTNAiUsSFJCPKuBUDySzO5AhgUw+Pcn+RchBLW4uESdr+fonSPKghMoO3puCdPd/nm68thHp+976FjLFP12xUHfNEzQzlNWeuewsj+r0sF2EkLDuW3PaSd9fd5NP1zx0W/N82x1O3o3SjUP4nT68RIT21pCQ36r155jeTe5FSyNEIIC1mnlpUi/X7VTYeSJKJXJUTSRodnQEjlnkzQ2Hae+iSg9GAjSpe4ZOnF7mn657GAVE29Lof0Dzm0Iknx4wkY7aidpzxkXfdm4HJVEkATntpNdy2mAlWH/tjfIZ+VYORX/Hrc6wggqGlukE23LFejrgTC7P7z0j6hWG7lcnoktmcpSLJmlSDzDat9GphPU3h+muo5Z+uWqm3bXTbKcEv/3bFVYkOTQKL19ZIzePTrGRLetepx21jvomwse+v1WgGo6Y3Szb4kcflmBsRJhBAXu9ftZhQL/gktx+bGP18+mxlImT05/irpHF+ji4wAdaZ2hfRectPPUOH1cbaEPjmNyjdJ/D4+wCcd/nq0Kfoh21dno0E0nNXV52NZ92BkhfzjBKmEisUVWkJxILm2JbaJQgnL5Yuw+FP/SSrGjxkKJpSyvC81HNpenuWiGhqeS1PUmSpd75qn23gwdaZ6iXy476euGSdpVa6MPq630zpFReqvEZ92K4Idnd52Vfrtsp5O3p+jKYy91vJ6jl9YQvbGHyeaO0rQ/RnOhxPINgBLzoRwRSlAITlS1Ktv2ocD15XiYn/+GDQgtGMuQY3aJhpwJemZZoAdDIWrtnafGLh8dbHbTNw0O2nHKxrZNUmjL4AyL+sgvz9jop4uTdPimk+rvTtO1nhm63+enF5Ygjboi5PbHKBpfLJojoiOUoACuVPAvYTWq26Yph6iEQAOfZzGVY2LzBlPk8i/R5EySBh0xau8P0ZnOWfrjupu+OOugbVXWou+0VcG5GNt93ADYU2dlASrcb/vrmoNO33PTrWc+ejIcYCsbVjR+3oiCcILCnSRch+cfeCnwK+cJLPJzWtgB7efzy6Jj5PIUimXo5UScrjwN0uGWGfqqwcnqAP9X5tf+Aas7diQAeUeIb9cpK/1x1UENnR7q6PfTiCtCgYj5FgnCCQpc6vYUPdRSbDs+Rl1DQTZRK2ng+8QWc2T1LtKj4QW68iRA1e0zy2e2cxO0p85G22us9MFxy/K5TQZJGBAcKm6+PWdjhQLXe2bo8fA8+QLxojmmF0IKCodVJX4TeICn2t0UX9Q/OCHCwOq2kMySw79E/ZNxFiS51Rugi92zVHfPQwduTNH+Cw7aXTdB7x+3SKEdGGa5x4HJsGGhfSEFheDEn9ccRQ+nFHvP2NgZZauPVCZPgYUMTc2nyOJOUv9kjJ5ZInT7VYDOdProzxtu+rrRSZ/U2LZMzu3D42PMog52C/wc0wshBYUQ6oOBuaIHVApciegcDFEux08xOTAyuTwtpnMUW0RiO0vBhQz5QikanU5QW1+Ijt+eof1NU7T9pI0lc/nnW65g94JtH/Jg/PzSEyEFBezeBRbt4R9UKX67Ok2JJamozY5MNk/uQJp6LDG6/CRIR5HcbnLRjhorO5u8d2yUndkQFBB9O7mn1kr+UKJoXumNsIKC5VfBDHM93js2Rp5Aip8fcmg0EJGED0WfPU73Xkfo0t/J7cPNU/TzZcc/ye2PBEluI+k/6owUzSkjEFZQKFOBtx5swPgHVgpEwuQwdiC5HYpnyen/N7ndMRCi60/9VHt3hv64Nk1fN9iZ0PS2iyuAEjGUP/HzySiEFRRAEk9pBfqnp2yUQxhMDtMHhIaw/0wwRS298yzMb4SgcJ4+1+GmyIKx56aVCC0oJHmPtSg3w+y3J/h3K4cJA4J6bonQV+cmls9bJd6VHqCUCSkXfh4ZidCCAl2Dc4rNMA/d8rBcjRzGj6U0VqQl6hgIKN5VaAkaTfSNh4rmj9EILyj3fIJVBfAPsBSfnrSyw7Mcxg0kmoedMbrY7WNCUrqb0BIU3CLfZFTydi2EFhQCEzDH33dJWSkSVrI7/SH+ncuhw4gmsvTwTYiOtkyxujr+XRgJzk2xhHnnppUILaip+Qy1DuWZfRb/EEuBvfqxlmmWyJRDn4Fbzy0v5uiLMzZWHW7GirSS367YhSiKLSCsoGAR3DH6r48BTEb4h1mKz09P0Ji7fCrQy2GkM3nyhZboUrePlfPwz9ws4DmP/mD83DETIQWVXEoxB9OVjju/N88XPdBSILF477UsRdrsQAoCfadwPjrX6WW2bfyzNhMIu/2Vn12t5+ePmQgpKOtMlq5z3Sxgc/XuMWWdOo62uFndmhwbGzOhJbr/OsCu+eOKDP98zQZ3onDLF54V/NwxG+EEhWZl8H/jPeFgQQwDR/7hluKTmnFyzcltn5qB8iKXP0mND2aYt6FSsxwz+LbBZugdJzUIJahYMs0alvFiApdfER1sCysuymzvk9E+JQNCcviSdKx1iolIdCdefEb3nLnJ27UQRlAIkaPnLNqr8GIqgGgfjPT5h1yK7y64ZJJ3lYGqcpyPXk9G6eBNlynthDZiOPr+0VHqHpovmjsiIYygZsIZ1mGPF9FKsO376rxbUSkL7vZMz8sK9JUjm80zZ932V/P08yU7q33jn5veIFe4/8Ik/XjJSW8dKv7nqwGb7sZOj+H3m9QihKASyRTrcg5Tel5EPH/eCjJHU/6Bl+LkvVl+Tm3JARemN84Ynb7vpW8bJhR7yGsJoq8Hbrjo0ZsQvbQt0E+XXIp+GAFyXbDfNrtOTwlCCMoTzChu8oxoH7y4+YdeCtyTSm7hi4fY2r2yRenPa0765ITFlPMRrt9Ut7lp3JNg/vPxxRxd7ParuoYP514U24pQWrQepgsKD6ljTHlvI3SHUBrtAzAy2UoDld6JxSw9HgnT5/XKfni0hnnsHR+l0/c85An860GPM23v+ALzSuf/m9VAEOqv1iC9dGTLol2p6YJCzokXzXocuRstevCrcajZzX6pK33AlnpyJsHKgvaeHje8JAjbN/Tt+uminW4+87OmDPyYmkvR7vrJov92NSAmNCdA54/bb/JsJ8PPH9EwVVDhWJp1I+cFsx7orK70V+6zehvZZ9fv1FGuA9sobOuwGsAyy2ghAWwn4eLbMxKi+WiqZHQ1ksjSr1eVWRoUQEtUNPbGO7/aR9TnzFFC8FXKVEENTWdZs2ReMEpAO0z+BZTivaNj1N4X5N9v2Y+FRIbu9wfo96tO5qHAf2+9wYqExnYXH/nI4o6zotkSOmIjnc0zDwqlOUTw8ckJ1up05TtH7190qufnkUiYJihsCe6vKH5VC5qAKX1BVW1udm+nEkY4nqYbT/3soP62CWFvgL+7tXeO5bJwZltv3OkLsR82/s9ZjXeOjLF2piubvBV4bs8WzSWRMEVQCERYvGsncdcDwYndp51FL6MUe+omyOopTzNMbJ/gjOuYTdKFhzPsnMJ/P73BNrJwPnowEGBN7JQMfPaRqSTtPaPspsDy3zVC3zZ56eIqTbixowkuFM8pUTBFUPiVfWQt/cDU8GdLUNGZAQlMuPEo+TUVZeCzzoZT9MwSppo704obKGgJntve0zZmd/3CGmFmmWoGnGwPNk8rzjeBT+vsbPfBv+uVvLDnhA2hmyIo55zyvNNaoLv5tiplDdr+vD7NciDlMLyBJRat+/WKw5QiVYS9v22cYNE6qzvO/CI2Mhoe+lkfX/7PXw28y9pHyaL3zHNzAE3wxDxLGS4o1Ow9mdj86gTQtRylSPyLKQX28LAgFnVg8URZUO1dD+2uHWftR/nvYATfNU7Q4+HlaF1a4dau1OgcirLqCP7PXw0keo+2R4vecSlQUfPaJeZZynBBReOportOm+Gv1pDiX8ErT8Uyw8QZA7dhbd4EHW520TsbKBjdLNgyo74Oq+HoVIz/iBsaSFMgsMD/XauBz/Dj1Vm6+FL5Dy1uc0fi4q1ShgtqYEp9Inctah8m6ROF1+P31E+yEK7Zo3ClvGckTH9dN6faGyKCL0Rtu5tGp+OaJb8R1v7pkrJgEUAQ4rOzLjr7JFX0btfi1iCR3S9eotdQQcUSKWoZLH44mwHRoK8a3YqCE2DQaV60D5PWMh2n60/89GOTfUNXGDYL+m4hd4Uzmt2XLJmE3ehAauLcg1lVW71t1eNU3Rkveq/rgUQvbBLiyeJ5ZiaGCgq/KPyD0YIDKrZ9h1u8/DzQfaDau88WpWO3pliXezPyR1iRcKUdVRX+SErziCf+vO6RCH1YpSLJfHCYDraFSuablHB3JM/ymfw8MxNDBdVjU75HVgPKU947ruxFbj9hoflIhp8Pugz00O0dj9IPTXY2odWEj7UC1d4n77jJPb/I8kdarkgrx2wkTdtrlEVcC/xwxbdhMQEEJ5zzYm37DBNUcCHNChz5h6IVX19QZoaJ7Qi6ses1MGnnIinqHAiy2jr+79cbiBbbut11VuYPsbLaW6+BxgDojsh/lrVAUl5NEGI1eu1ZFjnm55tZGCYomy9DNweKH4hW1HTGFZ2j8O/AFSmZ2nhIuNRA0nPYFaMrj2dNqfYGKFL964aT2vvmS1Z76zHQ6O7UPWV1lQXgsXiya/18kxJghBoT6BxliKDwC/LKqexG7ka59DLPCir5l1cKlMJYPZt3RcLuCfVsj4ZDdLx1mhkvmrGt23nSSmc7vOychp2AXts6fuDcBA/E948pD5HjlsCBthB7X/w73CieoDjnKEMEhUnXpUGp0Xr8dlOhGebhUbr/OrSpiYcVqe3lPH3XOGmad92uWivdejFH0/OLlFxSVxakxRh2JeizemU/YgAh8u8uealplTq9jYIfa37OmYUhgsLFMCzN/IPQGtSAQSz8iyzF0RaPajNM/CKjguBqj7rQsFZg9UPOCtcmYLRiZl/h+WiGfrmi7n4Ttnow2uHf22a5NZQvmnNmobugUMQ47svout0r0KTCDBNdzx2+9bd9iC7jIuSIq2BJrCyaqCU4j6FVz8EbLuoeDm24tk6rgXzahW6/qnMi6vROP14semdaMSfIPSndBYUbln1O7X+VSoEQLPwHlNhjYftxtz+06qU4rEYoUkW07uitKdYFnf8z9Aar0dfnJuh81wzz0FNb7a3X6BgMq1qh3ztqoSN3IkXvS0ssXjHC57oLaiGRpi6L/tu9AjDD/EihK9L+Jhdbgfjh8i+yBmL7z08qbpqtJRDS9xcmmb84CmZRqiTKeO1I0IfVyvtB4bv8dM2/6v0mrUDBNT/3zEB3QSEgUcqrXC8KZpj8iy0FVrKZvzseQlgTfxepopO4GfV1YF/jJPVPRpnpitbVDJsdvlCa9l9wFH3mtfj87BQ1PF37fpMWwJskvmj+tk93QcH8n//yeoOLh28r3JKcvDtLb5wLdOimyxQDSAgXnhCHml2sSFUwDf0zEAA50+FTtJ0uAP9E3hdCL1qGxPCb0F1QY15jzk8rqe9eVLztwz0cNZNEK1DNsO/8JDU9mmEro1bV3nqMTC5PHQNh+kBheReAFTbyTfy70YvmASLHnPnnKN0F9XxS371zKS69ytOXjcqifUYDIcGgv3MwSFNzi5vKhRk1kATfXafsBwogvP/jtVlNk7frAX8SNJvg55/R6C4oVATzX94IjrRHil60mRSKVMem4hSOZ4Q7H602WJ1eg7pzE1IXSGHw70Rv4I9vtteE7oK6poF3xEa49DKnOMmrF8jTINyOsiAUzJbbgOYPNCsrOi7wUY2N6rqXit6HEeA2g9n3o3QVFK4o81/aSPZfVle0qQUQEUqR4M2AQllvUP9qbz0GQvUtL4Ps2gn/HVcDLVsP3g5v6krGZnhozbEkPD8PjURXQXmD5gqq/vGSoeHv7TUWOt46RQ+HghQwqNpbj4GVadARV1Wnh8AO3Hy1rtNTA4xTza6Y0FVQuLLBf2kjgRnmrnp1+/+NsOuUlUXrxqZjy5bE5XE8WnXAouuXyy7FzrwA95sa/vYhNwvct/OGKlhQ8C7nv7TRICfFv3ytQJHqnb55thqJVM2w2VFz10f/USEmXMk4Z0Dydj1ahoimAuaGznUVFEw0+C9tNMhJfXBceanMWqBhGc5HMIHsGgoyr4hKGtjqPRqJqlqZ0E3y+P2FouduBrjAanYuSldB6eUhoQY1ZphrsadunE7cnmaWxGZXe+s1cL8JXR/5774aMMb5+bpfk6vsWgDf84nZChbUAwOLYlfj8qu/S5E2EEJHQAMXCGFJDBNImPZX6nD5l2h/k/LzJlaxvQ1TQmz1VmKdqWBBmZXU5UEFOi638ZNiNbC1g1MR7h7BvlnksiAtRjSRZf2b1EREUacHk1H+WZvNqDdjanJXV0FtpDuhHqAE5gsVpUhr3ZOqtAGrs66hsOoVXKkPudGMeLKVK6i2N8Vf2CzUeKAfafVuGUGNexfpExV+esg3/XBltuj5igLq+cy0FdNVUK1DxV/YLM4+SdMHVcqifdtrrDQXNcYM08wxG8nQtyr99FB0rPdlwc2AVI0UlEF8rTDah+vd916H+flXUQO+hEdalD2PAp/W2llPLv65isSbSl6hbg8Xf2EzOdEZL5okpVg2w5wWolOHHgPf6vrTeXW+EMcsdLg9wqKm/HMViWFPBQuqXZCgRAGUIn1Yrexez+entTHDFG2gLOrVRIw+PaXu3IQ6Pdwz45+paIx6KzgocV+QsPlKflVohvnu0THmilom15YUD28wRb9edhV937X47IyTGp+bW6enlLFKDpt3WcUT1OnHS/Suwu56x9s8FElUTjIXPw7IN6mp0/u4xsaeGf8cRQQ9o+AByc9DI9FVUE816qWrJbhesPecMsfTHSdt5PRXzrbvxvOQYvMagFW6uiNW9AxFBdfgJ03uaqiroPpc4gkKh2o0aOMnz2rcHwiX/XUMjDeuJL11QPnKhMDMb83zZXFuKgCjFrP7RekqKIQw+S8tAmrMMH+46Cob/4fVhjeQom8aJou+22qgTg/5JrPvN6kFVmLTlXx9A8sv/6VFQE0FOrZIaJdSrgOGMDXtXlV1ep+cnKBTXcb46WkJSt1mKvmCoS8sViXyStSYYZ55MMfP07IYyKPdfqWufxNWJ9TpiZ5vKkXHmPk9d3UV1EIyVfSlRQEZf6Xbvm1V1rKsOJ+cwXdUVm5V4PfmedNMVjbLo/EcMwbi56GR6CoooGcb0M2AJK/SaB/oGVvg56vQA506dterOTcNs+fBP6dyAg0D0O2Fn4NGorugOgW4ZLgah+9EFPc4OnzLXTbBCdxvOnBT2RmxAOr0yiXfVAr0H+sToJOh7oJCu0b+y4sCghOoUeMnVyk+q7eRa058s8qldJ5uPJunt1U0PkAV/tG7ODeJ++O3Hjdeo0piC1gx23xihs4L7Ls0UzTBSvHe0TG60x/i569QA/my3vEF2nFSeZ0eTP1/EsgXYqM0DxJNmZyDAroLalbgSB8425NS3Lm9+rab4ib2tV1voE7vm0blvhAAfnqwreafS7mBHs6wc+Pnn9HoLihY4xrRsHoz7KxTNgnhpGr1JPl5LMSAE9Opu8pW2wLwhTCiGZoR3BvJU9LkgATQXVCxRIq6x8X+BfxDoRkmfBc6B0OUFWyRwlav9WVQVfL2/eNWqiqjOr31QOcNfu6Zge6Cwq/GwJTY56g6FWaYB2+6KZYUqwL9mWVBVfIWPwzlVqe3HmYXxRbQXVDA7s8wE0L+IYjC+ecZ+kqhKxK6+M2GxYn2OWaX6Muz6vJNKLvCd+afQzkTNjmhW8AQQaEESRRLsdWAK5LS1qDNL4L8vDZlRJNZqmrzqLJORp0e7Kn571/OtI/ki+acWRgiqGg8Lfw56lSXcjPMvWftpid5l/s3BdidJf7zrQZ8yI8I6qe3GYYEaAVawBBB4Urya1dW6G1f04scu7KgJISOG6+jbnOjff32OG1XkW/CZ8b1/3JO3pYCFRIidH8vYIiggHMuw5Jv/AMRib9UeKAfa5vh57hhIxDL0t7Tys9N4JsLnrJP3pYCdt8Jk9uArsQwQS0kxD9Hwfge4WR+Mpbi42oLq5kzemCr+X2TOpOVnbV2OvtE3Mr/zYAIspm2YTyGCQogV8A/ENHAto+fkKVgZpgDxpphpjJ5auqeU5VvQjrg2L0oq67nv2u5g/o9s2/o8hgqKE9Q/FAtTEn4SVmKZTNMNytGNWJgZXoxvqDKTw91er9UQJ3eaqBdUnBBnPMTMFRQSPKKZn7Jg04dSi8efnFmgmxeY1yR3IEU7b/gUHzdBGC1rbR8UwEEI15PZYUoN1qJoYICaIjFPxzR+PnGXNHkLAW2ffdf61+BjtvCB5s9qvz08KPQWGYmK2pAfaho2z1guKBwo/KW4NE+dOrAdomfpKVAYlVPM0yku64/V257Bt49aqG6R+I1Q9OSLkuOYgJF9woYLijkpPqcYtf2qTHD3FlrI7tPn20fil5f2mKK+1qBd46M0R+3AhVVp8eDfCY6FfJzSwQMFxTwhjLUMijuC0fy86/WoKItFsp+7g+EdDHDxPnsCxV1eiid+qbJU9FbPYDtntlmLKthiqAWEil6Nil25EmNGeaPl6c0d0Waj2ZY/yal9YVgx6lJqi9jXwiloKkaP6dEwRRBgcnZjLCOSECNGSYmPQSg1YCfXktvQNVWD6tpdWe86HtUGpgzcQHPTgVMExSW7IcCdudYCTPDVDipz3VpZ4Y55Ewovp8FIOjfmwNFn7/SQHcNkQphS2GaoIBtNss6JvAPThTUmGGi8TPabG52eIIp+kxFnR7OcKjTq7Si11LgmoZoiVweUwUVT6apY0zcsxSSvF80KCtFAs+sMV4fqgbC739cUxZdLACTlTM9lX9uQmQPHd6TAtXtlcJUQYHpgNgmIYfuhBVf4DvY7OY1onjAp+L8w1lVdXrbqsep6v5CWfqQq+X+aJ7mBLqmsRqmCwrAQpd/gKLQ9CLLLubxk7kUu+vGyb2BTh0IuT8ejdKH1crPTQhY/HJjbkuICccCtEbi542ICCEodEwQ2Wps3yVv0YQuBcww2/vUlyLBF2LfBWVWZgW+aJxmYuc/ayWCrhqi5p14hBAUChyRWxD1Ri9ckZTkg1C4WtXmptii8uDEYipHx1vhC1H8563Gp6cq934TD4pgcTmVnzOiIoSgAKI3KMfnH6gIYFv1qUIzzM9PqzPDbHw4pyrfhAuQSDrzn7FSwR06kS4QrocwggJI9qJPKv9QReCPlkDR5C4FggqP3igrReoZiyla+Qrg30V/4K0QIgdtb/LMKJWfJyIjlKDwSyRi53hwunuJ3lfYqeNQs5sW1jDDhNZwbtpTryzHBVAJ8W2Tl1Vw8J+tEsFtXJhXLpWYJyIjlKAAtn4iek9gIiu9Hv9RtZWm55d4Hf0zEISB6JQU3xbYWe+g+seV5ae3GjhL99pzrOaTnx+iI5ygAK7Ki7b1wzYLpUhK70nd6i1thokgxOWeOVV+eriSgav5/GeqVJBzEskaTA1CCgp3poY9WVa7xT9sM0Fn9I9rlG3Tvjjr4LXERt9knLYdV7Z1ZBwcpoNt4S1zbkLOyYGtXhkFIlYipKBANJEWLuF7sTdHX6ooRZqY+f/bvnAiSx9WKzdZgenmd5dmij5HpYIf0H6XGF00NoqwggJo1obln3/wZqKmAv347X/NMMPxLH1/UbmfHvJSu+udFdO/aT2Qb+qZKK8QeSmEFhQiPEjqieRBcaYnRduqlK0yn9RYKRjLUGIpR41dflUhcjRDw7lpK5QWgS6r+JXkShBaUAC/WBOz4rTDwQT/qlHZxcO3D4/QvYEIPRqO0Mcq6vTePjK67AvxUqzVWS9wLQOBqHI9N61EeEEBPOhRrzhBiqr7Cs0wDwzTrtoJ1kqU/2dr8eX5abr0Sqzzo140D+aXgxAl3ns5UhaCArAfe+XMCbFSIeL2QZXyFUcNaKlzfosUvSKiN+LJVoyYQNkICqDi+Lk9R9cFENXP1/1FYtgsuN+0Ver04A2BKxnlHoTgKStBgVAsTU8FcEw6/XiJJVx5UWwUJHoPtG2NOr2CmES/fbsRyk5QAB0RH1nNFRVyUp+dVR4GXwvcCP7u4gxd2AJbPdToDU5nhXYu2gxlKSiAQAUSv2YFKhDtQ+W3ko6H67Gjgvs3rQTn336XeAb/WlK2ggKopmBnKpOck2ofJlVVPpTivWMWqu6s/Do9bPOwMi1WsJhAWQsKhGNp5pVuhqjQKkapGWYpUGj7Z2uw6M+tNHCvyTJTGXmm9Sh7QQFcQhvzGi8qdAVEAlZpKdJKsFX84aqv4pO3t9/kye7PVFw0bzUqQlAAv36ueVz7MHaC1j5S7oG+ks/PuqjhWWXX6aECwhdOb4mVqUDFCAogQegNpqljNM+KLfkXrAcIcyttfVMAAqypYB9y5Am7rDmKxMq/Nk8tFSWoAoGFNOvuYVRVxcHbys0wkbtCxXql5ptgB4fO7Khs4d/LVqAiBQWQqxqbybIDMf/Steb8swyL1vHiKcW+Cs03IX2BnYFjLrNlxQQqVlAAe3fs4dHlQ+981XdN65thIt9UqSYrqF7B9YutdF4qRUULqgB6sfa59M1X1XcvFgloJVjBzlXgZcFbg8tRPP6Zb1W2hKAKeILLZpoof+EnhhbsOGUvEhJAnR6aDlTSZcHmQaJnEzmaL1MzFb3YUoICqK7AlQFcrdc6aPH7rWIzTLjCfn/FVzHnJjwzbKFhSlqp9XibYcsJCiDJOBdNs2iUlm1Jse17/9j/vye167SzYur07o7kyTqTYRX//DOVLLMlBVUAwgrH08w/W4vzFTPDXOGKhDY4lXC/qVAhjjKvrR50WI8tLagCLBoYStNjW44Zwmw0Iogz0l8tQWbGAo/zQ7fDRf9OuYCtXctgnl7Yc2XTSkYEpKBWgGsFMAvptWepfXhjZ6yTXQnafnKSvr/sY7V+/D8XHXxn9GN67coy91a5IqlDCqoE2AoifzXqyVL3uLqKCwQfsDI1PMsU/TORQfi7x5ZjZ6RAVAppo0hBrQGEhYoL1AfinKXUH7CcKshRDY5mdzAVhTl/JRmmmIEUlApQUoOK9m6b/pUXeoHPfWMgz247Iy/Hf0fJ5pCC2iAIHY/7sqzk5t5onlqG8ppECrUGaQHUM94fy9NLR4458ZZjm5hyQQpqk+CsgXDyVCDDzDgxaWEgg6CGljkuJeDKCs5C90aWz0O4yTw+kyVvKFN2nQDLFSkojUGkEAJDhMwdyDAbaSSQcZ2ky5JnzeS0WMnQPwsX+CDeF/YsvZnOspo6bOPmIml29tsqt2RFQgpKZ3DIh/8czl8o1VlILE92VGbPhDJsCzbuy9CIJ8N6YiGBOji1zJA7y8qk8M8gTKyCs5HlSgX8OVh18Gfiz5biEQMpKIlEQ6SgJBINkYKSSDRECkoi0RApKIlEQ6SgJBINkYKSSDRECkoi0RApKIlEQ6SgJBINkYKSSDRECkoi0RApKIlEQ6SgJBINkYKSSDRECkoi0RApKIlEQ/4Pvt102w1dlfwAAAAASUVORK5CYII=;" vertex="1" parent="DxSVKQ_-vADC1yZE9kcd-116">
          <mxGeometry x="210" y="13.700000000000017" width="42" height="42.59" as="geometry" />
        </mxCell>
        <mxCell id="DxSVKQ_-vADC1yZE9kcd-118" value="&lt;pre style=&quot;overflow: auto; padding: 9.144px 13.716px; text-wrap: wrap; word-break: break-all; font-size: 15px; text-align: start; margin-top: 0px !important; margin-bottom: 0px !important;&quot;&gt;&lt;font face=&quot;Times New Roman&quot;&gt;&lt;b&gt;Файл превышает 5 МБ&lt;/b&gt;&lt;/font&gt;&lt;/pre&gt;" style="text;html=1;align=center;verticalAlign=middle;whiteSpace=wrap;rounded=0;" vertex="1" parent="DxSVKQ_-vADC1yZE9kcd-116">
          <mxGeometry x="15" y="40" width="250" height="90" as="geometry" />
        </mxCell>
        <mxCell id="DxSVKQ_-vADC1yZE9kcd-120" value="ОК" style="rounded=1;whiteSpace=wrap;html=1;fillColor=#f5f5f5;gradientColor=#b3b3b3;strokeColor=#666666;" vertex="1" parent="DxSVKQ_-vADC1yZE9kcd-116">
          <mxGeometry x="85" y="130" width="110" height="30" as="geometry" />
        </mxCell>
        <mxCell id="DxSVKQ_-vADC1yZE9kcd-121" style="edgeStyle=orthogonalEdgeStyle;rounded=0;orthogonalLoop=1;jettySize=auto;html=1;exitX=0.5;exitY=1;exitDx=0;exitDy=0;" edge="1" parent="1" source="DxSVKQ_-vADC1yZE9kcd-116" target="DxSVKQ_-vADC1yZE9kcd-116">
          <mxGeometry relative="1" as="geometry" />
        </mxCell>
      </root>
    </mxGraphModel>
  </diagram>
</mxfile>
